<svg xmlns="http://www.w3.org/2000/svg" version="1.1" xmlns:xlink="http://www.w3.org/1999/xlink" xmlns:svgjs="http://svgjs.dev/svgjs" width="1500" height="401" viewBox="0 0 1500 401"><g transform="matrix(1,0,0,1,-0.9090909090909918,-1.213779735172892)"><svg viewBox="0 0 396 106" data-background-color="#000000" preserveAspectRatio="xMidYMid meet" height="401" width="1500" xmlns="http://www.w3.org/2000/svg" xmlns:xlink="http://www.w3.org/1999/xlink"><g id="tight-bounds" transform="matrix(1,0,0,1,0.2400000000000091,0.32084950605567997)"><svg viewBox="0 0 395.52 105.35830098788864" height="105.35830098788864" width="395.52"><g><svg viewBox="0 0 670.8471190513787 178.69971856258377" height="105.35830098788864" width="395.52"><g transform="matrix(1,0,0,1,273.3495190513789,0)"><svg viewBox="0 0 397.49759999999986 178.69971856258377" height="178.69971856258377" width="397.49759999999986"><g id="textblocktransform"><svg viewBox="0 0 397.49759999999986 178.69971856258377" height="178.69971856258377" width="397.49759999999986" id="textblock"><g></g><g transform="matrix(1,0,0,1,0.9887999999999693,0)"><svg viewBox="0 0 395.5199999999999 117.31816131830007" height="117.31816131830007" width="395.5199999999999"><g transform="matrix(1,0,0,1,0,0)"><svg width="395.5199999999999" viewBox="0.65 -36.05 172.93 51.3" height="117.31816131830007" data-palette-color="url(#fcb089a8-a99f-4529-a14a-065c81209f6b)"></svg></g></svg></g><g transform="matrix(1,0,0,1,0,152.82443620456797)"><svg viewBox="0 0 232.20979199999994 25.87528235801581" height="25.87528235801581" width="232.20979199999994"><g transform="matrix(1,0,0,1,0,0)"><svg width="232.20979199999994" viewBox="1.95 -38 347.71000000000004 38.75" height="25.87528235801581" data-palette-color="url(#b4d711ee-4812-4c9b-b854-703bc460a095)"></svg></g></svg></g></svg></g></svg></g><g transform="matrix(1,0,0,1,0,2.034993443633809)"><svg viewBox="0 0 245.6535167999999 174.62973167531615" height="174.62973167531615" width="245.6535167999999"><g><svg xmlns="http://www.w3.org/2000/svg" viewBox="22.33 30.33 55.34 39.34" x="0" y="0" height="174.62973167531615" width="245.6535167999999" class="icon-icon-0" data-fill-palette-color="accent" id="icon-0"></svg></g></svg></g></svg></g><defs></defs><mask id="e6f629e1-dadd-4698-9094-6f39e5c49279"><g id="SvgjsG2469"><svg viewBox="0 0 395.52 105.35830098788864" height="105.35830098788864" width="395.52"><g><svg viewBox="0 0 670.8471190513787 178.69971856258377" height="105.35830098788864" width="395.52"><g transform="matrix(1,0,0,1,273.3495190513789,0)"><svg viewBox="0 0 397.49759999999986 178.69971856258377" height="178.69971856258377" width="397.49759999999986"><g id="SvgjsG2468"><svg viewBox="0 0 397.49759999999986 178.69971856258377" height="178.69971856258377" width="397.49759999999986" id="SvgjsSvg2467"><g><rect width="397.49759999999986" height="10.579872860026782" x="0" y="129.78136233142064" fill="white" opacity="1" stroke-width="0" stroke="transparent" fill-opacity="1" class="rect-yte-0" rx="1%" id="SvgjsRect2466" data-palette-color="url(#fcb089a8-a99f-4529-a14a-065c81209f6b)"></rect></g><g transform="matrix(1,0,0,1,0.9887999999999693,0)"><svg viewBox="0 0 395.5199999999999 117.31816131830007" height="117.31816131830007" width="395.5199999999999"><g transform="matrix(1,0,0,1,0,0)"><svg width="395.5199999999999" viewBox="0.65 -36.05 172.93 51.3" height="117.31816131830007" data-palette-color="url(#fcb089a8-a99f-4529-a14a-065c81209f6b)"><path d="M17.4-27.7L17.4-27.7 17.6-29.25Q17.6-31.55 15.8-32.2L15.8-32.2Q14.4-32.65 13.65-32.65L13.65-32.65 13.6-32.65Q12.1-32.65 11-32.18 9.9-31.7 9.4-31L9.4-31Q8.35-29.55 8.2-27.95L8.2-27.95Q8.2-26.05 9.9-24.68 11.6-23.3 14.03-22.28 16.45-21.25 18.88-20.05 21.3-18.85 23-16.6 24.7-14.35 24.7-11.2L24.7-11.2Q24.7-5.05 20.83-2 16.95 1.05 12.03 1.05 7.1 1.05 3.88-1.18 0.65-3.4 0.65-7.15L0.65-7.15 0.65-7.2Q0.65-9.05 1.23-10.43 1.8-11.8 2.6-12.45L2.6-12.45Q4.25-13.8 5.6-13.9L5.6-13.9 6.2-13.95Q7.6-13.95 8.75-13.28 9.9-12.6 9.9-11.4L9.9-11.4Q9.9-10.8 9.25-10.4 8.6-10 8.13-9.2 7.65-8.4 7.6-7.85L7.6-7.85 7.5-7.3Q7.5-4.25 10.3-3.25L10.3-3.25Q11.3-2.9 11.9-2.9L11.9-2.9Q14.65-2.9 16.32-4.55 18-6.2 18-8.75L18-8.75Q18-11.8 15.4-13.7L15.4-13.7Q13.45-15.1 11.18-16.05 8.9-17 8.1-17.4 7.3-17.8 6.4-18.35 5.5-18.9 4.4-19.9L4.4-19.9Q2-22 2-25.58 2-29.15 3.95-31.6L3.95-31.6Q7.45-36.05 14.45-36.05L14.45-36.05Q18.15-36.05 20.7-34.63 23.25-33.2 23.25-30.7L23.25-30.7Q23.25-28.9 22.23-27.7 21.2-26.5 19.6-26.5L19.6-26.5Q18.85-26.5 18.13-26.8 17.4-27.1 17.4-27.7ZM31.75-12.7L31.75-12.7 31.8-11.45Q31.8-11.15 32.2-11.15L32.2-11.15Q33.8-11.3 35-11.98 36.2-12.65 36.8-13.5L36.8-13.5Q38-15.35 38.1-16.7L38.1-16.7 38.15-17.3Q38.15-20 36-20L36-20Q34.4-20 33.4-18.6L33.4-18.6Q31.75-16.4 31.75-12.7ZM42.65-6.05L42.65-6.05Q42.65-4.15 41.87-2.73 41.1-1.3 40.12-0.63 39.15 0.05 37.85 0.45L37.85 0.45Q36.2 0.95 34.7 0.95L34.7 0.95Q30.5 0.95 28.5-2.2 26.5-5.35 26.5-10.23 26.5-15.1 28.97-18.9 31.45-22.7 36.4-22.7L36.4-22.7Q40.9-22.7 42.5-19.55L42.5-19.55Q43.15-18.35 43.15-17.28 43.15-16.2 43.05-15.58 42.95-14.95 42.35-13.7 41.75-12.45 40.75-11.45 39.75-10.45 37.6-9.55 35.45-8.65 32.55-8.35L32.55-8.35Q32.15-8.35 32.15-8L32.15-8Q32.15-7.55 32.47-6.68 32.8-5.8 33.2-5.2L33.2-5.2Q34.3-3.8 36.45-3.8L36.45-3.8Q38.6-3.8 40.1-5.2L40.1-5.2Q40.9-5.95 41.4-7.05L41.4-7.05Q41.6-7.45 41.92-7.45 42.25-7.45 42.45-6.9 42.65-6.35 42.65-6.05ZM50.15-12.7L50.15-12.7 50.2-11.45Q50.2-11.15 50.6-11.15L50.6-11.15Q52.2-11.3 53.4-11.98 54.6-12.65 55.2-13.5L55.2-13.5Q56.4-15.35 56.5-16.7L56.5-16.7 56.55-17.3Q56.55-20 54.4-20L54.4-20Q52.8-20 51.8-18.6L51.8-18.6Q50.15-16.4 50.15-12.7ZM61.05-6.05L61.05-6.05Q61.05-4.15 60.27-2.73 59.5-1.3 58.52-0.63 57.55 0.05 56.25 0.45L56.25 0.45Q54.6 0.95 53.1 0.95L53.1 0.95Q48.9 0.95 46.9-2.2 44.9-5.35 44.9-10.23 44.9-15.1 47.37-18.9 49.85-22.7 54.8-22.7L54.8-22.7Q59.3-22.7 60.9-19.55L60.9-19.55Q61.55-18.35 61.55-17.28 61.55-16.2 61.45-15.58 61.34-14.95 60.75-13.7 60.15-12.45 59.15-11.45 58.15-10.45 56-9.55 53.85-8.65 50.95-8.35L50.95-8.35Q50.55-8.35 50.55-8L50.55-8Q50.55-7.55 50.87-6.68 51.2-5.8 51.6-5.2L51.6-5.2Q52.7-3.8 54.85-3.8L54.85-3.8Q57-3.8 58.5-5.2L58.5-5.2Q59.3-5.95 59.8-7.05L59.8-7.05Q60-7.45 60.32-7.45 60.65-7.45 60.84-6.9 61.05-6.35 61.05-6.05ZM88.69-27.7L88.69-27.7 88.89-29.25Q88.89-31.55 87.09-32.2L87.09-32.2Q85.69-32.65 84.94-32.65L84.94-32.65 84.89-32.65Q83.39-32.65 82.29-32.18 81.19-31.7 80.69-31L80.69-31Q79.64-29.55 79.49-27.95L79.49-27.95Q79.49-26.05 81.19-24.68 82.89-23.3 85.32-22.28 87.74-21.25 90.17-20.05 92.59-18.85 94.29-16.6 95.99-14.35 95.99-11.2L95.99-11.2Q95.99-5.05 92.12-2 88.24 1.05 83.32 1.05 78.39 1.05 75.17-1.18 71.94-3.4 71.94-7.15L71.94-7.15 71.94-7.2Q71.94-9.05 72.52-10.43 73.09-11.8 73.89-12.45L73.89-12.45Q75.54-13.8 76.89-13.9L76.89-13.9 77.49-13.95Q78.89-13.95 80.04-13.28 81.19-12.6 81.19-11.4L81.19-11.4Q81.19-10.8 80.54-10.4 79.89-10 79.42-9.2 78.94-8.4 78.89-7.85L78.89-7.85 78.79-7.3Q78.79-4.25 81.59-3.25L81.59-3.25Q82.59-2.9 83.19-2.9L83.19-2.9Q85.94-2.9 87.62-4.55 89.29-6.2 89.29-8.75L89.29-8.75Q89.29-11.8 86.69-13.7L86.69-13.7Q84.74-15.1 82.47-16.05 80.19-17 79.39-17.4 78.59-17.8 77.69-18.35 76.79-18.9 75.69-19.9L75.69-19.9Q73.29-22 73.29-25.58 73.29-29.15 75.24-31.6L75.24-31.6Q78.74-36.05 85.74-36.05L85.74-36.05Q89.44-36.05 91.99-34.63 94.54-33.2 94.54-30.7L94.54-30.7Q94.54-28.9 93.52-27.7 92.49-26.5 90.89-26.5L90.89-26.5Q90.14-26.5 89.42-26.8 88.69-27.1 88.69-27.7ZM98.79-7.65L98.79-7.65Q98.89-12.7 98.89-15.95 98.89-19.2 98.44-22.15L98.44-22.15Q98.44-22.65 99.44-22.65 100.44-22.65 101.16-22.4 101.89-22.15 102.19-21.85L102.19-21.85Q102.99-21.05 103.11-21.05 103.24-21.05 103.89-21.5L103.89-21.5Q105.84-22.75 108.21-22.75 110.59-22.75 112.36-21.55 114.14-20.35 114.89-18.4L114.89-18.4Q116.24-15.05 116.24-11.3L116.24-11.3Q116.24-7.6 114.89-3.9L114.89-3.9Q114.14-1.9 112.69-0.63 111.24 0.65 109.29 0.65L109.29 0.65Q105.44 0.65 105.44-3.8L105.44-3.8Q105.44-5 105.94-5L105.94-5Q106.04-5 106.51-4.78 106.99-4.55 107.44-4.55L107.44-4.55Q110.99-4.55 110.99-12.08 110.99-19.6 107.19-19.6L107.19-19.6Q106.14-19.6 105.41-19.13 104.69-18.65 104.49-18.2L104.49-18.2 104.29-17.7Q103.59-13.2 103.59-0.35L103.59-0.35Q103.59 5.45 103.81 7.98 104.04 10.5 104.04 11 104.04 11.5 103.74 11.9L103.74 11.9Q102.74 13.2 101.04 14.23 99.34 15.25 98.04 15.25L98.04 15.25Q97.54 15.25 97.54 14.6L97.54 14.6Q98.34 9.55 98.79-7.65ZM135.39-15L135.39-15 135.29-8.6Q135.29-1.95 136.74-0.6L136.74-0.6Q136.94-0.4 136.94-0.15L136.94-0.15Q136.94 0.6 133.71 0.6 130.49 0.6 130.29-1.3L130.29-1.3Q130.24-1.75 130.24-3.15L130.24-3.15 130.44-11.15Q130.44-11.5 130.04-11.5L130.04-11.5Q127.64-11.5 125.54-10.15 123.44-8.8 123.44-6.7L123.44-6.7Q123.44-5.6 124.04-4.85 124.64-4.1 125.51-4.1 126.39-4.1 126.96-4.45 127.54-4.8 127.64-4.85L127.64-4.85Q128.49-4.75 128.49-3.08 128.49-1.4 126.94-0.38 125.39 0.65 123.69 0.65 121.99 0.65 120.76 0.05 119.54-0.55 118.99-1.3 118.44-2.05 118.09-3L118.09-3Q117.74-4.15 117.74-5L117.74-5Q117.74-8.5 119.94-10.6 122.14-12.7 125.59-13.6L125.59-13.6Q130.14-14.5 130.34-15.25L130.34-15.25Q130.49-15.8 130.49-17.1L130.49-17.1Q130.49-19.75 127.79-19.75L127.79-19.75Q126.64-19.75 125.74-19.03 124.84-18.3 124.84-17.2L124.84-17.2 125.14-16Q125.04-15.15 123.34-15L123.34-15 122.79-14.95Q121.29-14.95 120.41-15.7 119.54-16.45 119.54-17.7L119.54-17.7Q119.54-18.5 120.06-19.48 120.59-20.45 121.39-21.05 122.19-21.65 123.86-22.13 125.54-22.6 127.09-22.6 128.64-22.6 129.49-22.5 130.34-22.4 131.81-22.03 133.29-21.65 134.26-20.6 135.24-19.55 135.31-18.38 135.39-17.2 135.39-15ZM154.78-5.75L154.78-5.75Q154.78-2.9 152.51-1.03 150.23 0.85 147.08 0.85L147.08 0.85Q142.48 0.85 140.33-1.93 138.18-4.7 138.18-9.45L138.18-9.45Q138.18-14.5 140.43-18.4L140.43-18.4Q141.53-20.4 143.58-21.55 145.63-22.7 148.38-22.7L148.38-22.7Q152.53-22.7 154.23-19.9L154.23-19.9Q154.93-18.75 154.93-17.2L154.93-17.2Q154.93-14.8 152.93-13.6L152.93-13.6Q152.13-13.15 151.46-13.15 150.78-13.15 150.36-13.23 149.93-13.3 149.23-13.9 148.53-14.5 148.53-15.55L148.53-15.55Q148.58-16.1 149.38-16.45L149.38-16.45Q150.13-16.9 150.13-18.05L150.13-18.05Q150.13-20 147.73-20L147.73-20Q147.13-20 146.31-19.48 145.48-18.95 144.93-18.13 144.38-17.3 143.91-15.53 143.43-13.75 143.43-12.13 143.43-10.5 143.56-9.68 143.68-8.85 144.11-7.43 144.53-6 145.71-5.1 146.88-4.2 148.63-4.2L148.63-4.2Q150.73-4.2 152.33-5.95L152.33-5.95Q152.98-6.65 153.38-7.65L153.38-7.65Q153.58-8.05 153.88-8.05L153.88-8.05Q154.33-8.05 154.56-7.23 154.78-6.4 154.78-5.75ZM162.18-12.7L162.18-12.7 162.23-11.45Q162.23-11.15 162.63-11.15L162.63-11.15Q164.23-11.3 165.43-11.98 166.63-12.65 167.23-13.5L167.23-13.5Q168.43-15.35 168.53-16.7L168.53-16.7 168.58-17.3Q168.58-20 166.43-20L166.43-20Q164.83-20 163.83-18.6L163.83-18.6Q162.18-16.4 162.18-12.7ZM173.08-6.05L173.08-6.05Q173.08-4.15 172.31-2.73 171.53-1.3 170.56-0.63 169.58 0.05 168.28 0.45L168.28 0.45Q166.63 0.95 165.13 0.95L165.13 0.95Q160.93 0.95 158.93-2.2 156.93-5.35 156.93-10.23 156.93-15.1 159.41-18.9 161.88-22.7 166.83-22.7L166.83-22.7Q171.33-22.7 172.93-19.55L172.93-19.55Q173.58-18.35 173.58-17.28 173.58-16.2 173.48-15.58 173.38-14.95 172.78-13.7 172.18-12.45 171.18-11.45 170.18-10.45 168.03-9.55 165.88-8.65 162.98-8.35L162.98-8.35Q162.58-8.35 162.58-8L162.58-8Q162.58-7.55 162.91-6.68 163.23-5.8 163.63-5.2L163.63-5.2Q164.73-3.8 166.88-3.8L166.88-3.8Q169.03-3.8 170.53-5.2L170.53-5.2Q171.33-5.95 171.83-7.05L171.83-7.05Q172.03-7.45 172.36-7.45 172.68-7.45 172.88-6.9 173.08-6.35 173.08-6.05Z" opacity="1" transform="matrix(1,0,0,1,0,0)" fill="white" class="wordmark-text-0" id="SvgjsPath2465"></path></svg></g></svg></g><g transform="matrix(1,0,0,1,0,152.82443620456797)"><svg viewBox="0 0 232.20979199999994 25.87528235801581" height="25.87528235801581" width="232.20979199999994"><g transform="matrix(1,0,0,1,0,0)"><svg width="232.20979199999994" viewBox="1.95 -38 347.71000000000004 38.75" height="25.87528235801581" data-palette-color="url(#b4d711ee-4812-4c9b-b854-703bc460a095)"><path d="M16.5 0.6L16.5 0.6Q11.78 0.6 8.54-1.64 5.3-3.88 3.63-7.93 1.95-11.98 1.95-17.45L1.95-17.45Q1.95-22.88 3.6-26.93 5.25-30.98 8.46-33.21 11.68-35.45 16.35-35.45L16.35-35.45Q21.23-35.45 24.46-33.18 27.7-30.9 29.33-26.85 30.95-22.8 30.95-17.45L30.95-17.45Q30.95-11.98 29.28-7.93 27.6-3.88 24.38-1.64 21.15 0.6 16.5 0.6ZM16.5-4.75L16.5-4.75Q19.78-4.75 22.04-7.91 24.3-11.08 24.3-17.6L24.3-17.6Q24.3-23.88 22.19-27.06 20.08-30.25 16.35-30.25L16.35-30.25Q12.73-30.25 10.69-27.05 8.65-23.85 8.65-17.55L8.65-17.55Q8.65-11.03 10.81-7.89 12.98-4.75 16.5-4.75ZM49 0.7L49 0.7Q46.3 0.7 44.59-1 42.87-2.7 42.3-4.95L42.3-4.95 42.3 0 36.8 0 36.8-38 42.8-38 42.8-24.9 42.3-20.6Q42.7-22.3 43.89-23.4 45.07-24.5 46.6-25.03 48.12-25.55 49.55-25.55L49.55-25.55Q54.2-25.55 56.57-22.26 58.95-18.98 58.95-12.55L58.95-12.55Q58.95-8.08 57.61-5.14 56.27-2.2 54.01-0.75 51.75 0.7 49 0.7ZM47.55-4.25L47.55-4.25Q48.77-4.25 49.89-5.06 51-5.88 51.7-7.7 52.4-9.53 52.4-12.55L52.4-12.55Q52.4-16.75 50.98-18.6 49.57-20.45 47.65-20.45L47.65-20.45Q45.32-20.45 44.11-18.06 42.9-15.68 42.9-12.15L42.9-12.15Q42.9-8.63 44.14-6.44 45.37-4.25 47.55-4.25ZM71.59 0.45L71.59 0.45Q68.87 0.45 67.13-0.06 65.4-0.58 64.43-1.24 63.47-1.9 63.1-2.35L63.1-2.35 64.95-7.1Q66.05-6.2 67.76-5.33 69.47-4.45 71.75-4.45L71.75-4.45Q73.52-4.45 74.23-5.18 74.95-5.9 74.95-6.75L74.95-6.75Q74.95-7.93 73.32-8.88 71.7-9.83 69.55-10.75L69.55-10.75Q68.27-11.3 66.84-12.15 65.42-13 64.41-14.4 63.4-15.8 63.4-18L63.4-18Q63.4-21.38 65.86-23.39 68.32-25.4 72.84-25.4L72.84-25.4Q75.75-25.4 77.76-24.54 79.77-23.68 80.45-23L80.45-23 78.75-18.5Q77.77-19.25 76.27-19.93 74.77-20.6 73.05-20.6L73.05-20.6Q71.15-20.6 70.4-20.1 69.65-19.6 69.65-18.5L69.65-18.5Q69.65-17.28 70.98-16.49 72.32-15.7 74.2-14.95L74.2-14.95Q77.32-13.73 79.23-11.94 81.15-10.15 81.15-7.4L81.15-7.4Q81.15-5.35 80.2-3.56 79.25-1.78 77.15-0.66 75.05 0.45 71.59 0.45ZM96.74 0.65L96.74 0.65Q92.54 0.65 89.97-1.11 87.39-2.88 86.22-5.79 85.04-8.7 85.04-12.15L85.04-12.15Q85.04-15.78 86.38-18.81 87.72-21.85 90.31-23.68 92.89-25.5 96.64-25.5L96.64-25.5Q102.24-25.5 104.47-22.26 106.69-19.03 106.69-13.1L106.69-13.1Q106.69-12.58 106.67-11.78 106.64-10.98 106.59-10.4L106.59-10.4 91.59-10.4Q91.74-7.45 93.26-5.78 94.77-4.1 97.79-4.1L97.79-4.1Q99.34-4.1 101.12-4.79 102.89-5.48 103.74-6.45L103.74-6.45 105.74-1.7Q104.74-1.03 102.58-0.19 100.42 0.65 96.74 0.65ZM91.54-14.3L91.54-14.3 100.34-14.3Q100.34-16.93 99.88-18.31 99.42-19.7 98.62-20.23 97.82-20.75 96.79-20.75L96.79-20.75Q94.24-20.75 92.97-18.86 91.69-16.98 91.54-14.3ZM118.59 0L112.34 0 112.34-24.9 117.99-24.9 118.29-20.5Q118.69-21.48 119.53-22.58 120.37-23.68 121.85-24.44 123.34-25.2 125.69-25.2L125.69-25.2Q126.42-25.2 126.97-25.1 127.52-25 127.99-24.8L127.99-24.8 126.59-18.25Q125.79-19.05 124.14-19.05L124.14-19.05Q122.22-19.05 120.99-18.26 119.77-17.48 119.18-16.5 118.59-15.53 118.59-15L118.59-15 118.59 0ZM142.24 0L137.79 0 127.69-24.9 134.69-24.9 138.99-12.45 140.09-8.35 141.09-12.45 145.24-24.9 151.84-24.9 142.24 0ZM165.34 0.65L165.34 0.65Q161.14 0.65 158.56-1.11 155.99-2.88 154.81-5.79 153.64-8.7 153.64-12.15L153.64-12.15Q153.64-15.78 154.97-18.81 156.31-21.85 158.9-23.68 161.49-25.5 165.24-25.5L165.24-25.5Q170.84-25.5 173.06-22.26 175.29-19.03 175.29-13.1L175.29-13.1Q175.29-12.58 175.26-11.78 175.24-10.98 175.19-10.4L175.19-10.4 160.19-10.4Q160.34-7.45 161.85-5.78 163.36-4.1 166.39-4.1L166.39-4.1Q167.94-4.1 169.71-4.79 171.49-5.48 172.34-6.45L172.34-6.45 174.34-1.7Q173.34-1.03 171.17-0.19 169.01 0.65 165.34 0.65ZM160.14-14.3L160.14-14.3 168.94-14.3Q168.94-16.93 168.47-18.31 168.01-19.7 167.21-20.23 166.41-20.75 165.39-20.75L165.39-20.75Q162.84-20.75 161.56-18.86 160.29-16.98 160.14-14.3ZM198.88 0.75L198.88 0.75Q194.66 0.75 193.17-1.45 191.68-3.65 191.68-8.1L191.68-8.1 191.68-19.65 188.43-19.65 188.43-24.9 191.93-24.9 192.28-30.15 197.73-32.5 197.73-24.9 203.88-24.9 203.88-19.65 197.73-19.65 197.73-8.25Q197.73-6.08 198.34-5.24 198.96-4.4 200.03-4.4L200.03-4.4Q201.13-4.4 202.36-4.98 203.58-5.55 204.28-6.15L204.28-6.15 205.48-1.1Q204.71-0.55 203.47-0.14 202.23 0.28 200.97 0.51 199.71 0.75 198.88 0.75ZM219.53 0.5L219.53 0.5Q214.03 0.5 211.03-2.95 208.03-6.4 208.03-12.5L208.03-12.5Q208.03-18.65 211.13-22.08 214.23-25.5 219.73-25.5L219.73-25.5Q225.25-25.5 228.14-21.96 231.03-18.43 231.03-12.5L231.03-12.5Q231.03-6.58 228.04-3.04 225.05 0.5 219.53 0.5ZM219.63-4.5L219.63-4.5Q224.38-4.5 224.38-12.5L224.38-12.5Q224.38-20.55 219.63-20.55L219.63-20.55Q217.28-20.55 215.98-18.69 214.68-16.82 214.68-12.5L214.68-12.5Q214.68-8.2 215.98-6.35 217.28-4.5 219.63-4.5ZM252.52 0L246.42 0 246.42-38 252.52-38 252.52 0ZM269.12 0.65L269.12 0.65Q264.92 0.65 262.34-1.11 259.77-2.88 258.59-5.79 257.42-8.7 257.42-12.15L257.42-12.15Q257.42-15.78 258.76-18.81 260.09-21.85 262.68-23.68 265.27-25.5 269.02-25.5L269.02-25.5Q274.62-25.5 276.84-22.26 279.07-19.03 279.07-13.1L279.07-13.1Q279.07-12.58 279.05-11.78 279.02-10.98 278.97-10.4L278.97-10.4 263.97-10.4Q264.12-7.45 265.63-5.78 267.14-4.1 270.17-4.1L270.17-4.1Q271.72-4.1 273.5-4.79 275.27-5.48 276.12-6.45L276.12-6.45 278.12-1.7Q277.12-1.03 274.96-0.19 272.8 0.65 269.12 0.65ZM263.92-14.3L263.92-14.3 272.72-14.3Q272.72-16.93 272.26-18.31 271.8-19.7 271-20.23 270.19-20.75 269.17-20.75L269.17-20.75Q266.62-20.75 265.34-18.86 264.07-16.98 263.92-14.3ZM289.97 0.7L289.97 0.7Q287.67 0.7 286.15-0.33 284.64-1.35 283.9-3.05 283.17-4.75 283.17-6.8L283.17-6.8Q283.17-7.95 283.75-9.33 284.34-10.7 285.84-11.95 287.34-13.2 290.07-14 292.79-14.8 297.07-14.8L297.07-14.8 297.07-15.95Q297.07-17.8 296.18-19.03 295.29-20.25 292.62-20.25L292.62-20.25Q290.67-20.25 288.81-19.59 286.94-18.93 286.07-17.95L286.07-17.95 284.07-22.75Q285.57-23.78 288.08-24.64 290.59-25.5 293.67-25.5L293.67-25.5Q297.37-25.5 299.42-24.38 301.47-23.25 302.29-21.19 303.12-19.13 303.12-16.35L303.12-16.35 303.12 0 297.77 0 297.32-3.55Q294.72 0.7 289.97 0.7ZM292.62-4.1L292.62-4.1Q293.74-4.1 295.03-5.01 296.32-5.93 297.07-7.35L297.07-7.35 297.07-10.9Q296.82-10.95 296.53-10.95 296.24-10.95 295.87-10.95L295.87-10.95Q294.49-10.95 292.98-10.64 291.47-10.33 290.42-9.55 289.37-8.78 289.37-7.4L289.37-7.4Q289.37-5.6 290.17-4.85 290.97-4.1 292.62-4.1ZM315.81 0L309.56 0 309.56-24.9 315.22-24.9 315.51-20.5Q315.92-21.48 316.75-22.58 317.59-23.68 319.08-24.44 320.56-25.2 322.92-25.2L322.92-25.2Q323.64-25.2 324.19-25.1 324.74-25 325.22-24.8L325.22-24.8 323.81-18.25Q323.01-19.05 321.37-19.05L321.37-19.05Q319.44-19.05 318.22-18.26 316.99-17.48 316.4-16.5 315.81-15.53 315.81-15L315.81-15 315.81 0ZM335.31 0L328.91 0 328.91-24.9 334.71-24.9 334.84-21.63Q335.81-23.13 337.56-24.31 339.31-25.5 342.16-25.5L342.16-25.5Q345.96-25.5 347.81-23.1 349.66-20.7 349.66-16.45L349.66-16.45 349.66 0 343.26 0 343.26-15.9Q343.26-17.98 342.39-19.26 341.51-20.55 339.71-20.55L339.71-20.55Q337.96-20.55 336.64-19.26 335.31-17.98 335.31-15.9L335.31-15.9 335.31 0Z" opacity="1" transform="matrix(1,0,0,1,0,0)" fill="black" class="slogan-text-1" id="SvgjsPath2464"></path></svg></g></svg></g></svg></g></svg></g><g transform="matrix(1,0,0,1,0,2.034993443633809)"><svg viewBox="0 0 245.6535167999999 174.62973167531615" height="174.62973167531615" width="245.6535167999999"><g><svg xmlns="http://www.w3.org/2000/svg" viewBox="22.33 30.33 55.34 39.34" x="0" y="0" height="174.62973167531615" width="245.6535167999999" class="icon-icon-0" data-fill-palette-color="accent" id="SvgjsSvg2463"><g data-name="Layer 2" fill="black"><path d="M50 30.33C31.67 30.33 22.33 50 22.33 50S31.67 69.67 50 69.67 77.67 50 77.67 50 68.33 30.33 50 30.33M50 64A14 14 0 1 1 64 50 14 14 0 0 1 50 64M57.5 50A7.5 7.5 0 1 1 50 42.5 7.5 7.5 0 0 1 57.5 50" fill="black"></path></g></svg></g></svg></g></svg></g><defs><mask></mask></defs></svg><rect width="395.52" height="105.35830098788864" fill="black" stroke="none" visibility="hidden"></rect></g></mask><linearGradient x1="0.054" x2="0.941" y1="0.5" y2="0.5" id="fcb089a8-a99f-4529-a14a-065c81209f6b"><stop stop-color="#864d25" offset="0"></stop><stop stop-color="#f1c4b3" offset="0.498"></stop><stop stop-color="#864d25" offset="1"></stop></linearGradient><rect width="395.52" height="105.35830098788864" fill="url(#fcb089a8-a99f-4529-a14a-065c81209f6b)" mask="url(#e6f629e1-dadd-4698-9094-6f39e5c49279)" data-fill-palette-color="primary"></rect><mask id="d1dc83bb-e652-4e26-bcbc-9d5a88be1a28"><g id="SvgjsG2481"><svg viewBox="0 0 395.52 105.35830098788864" height="105.35830098788864" width="395.52"><g><svg viewBox="0 0 670.8471190513787 178.69971856258377" height="105.35830098788864" width="395.52"><g transform="matrix(1,0,0,1,273.3495190513789,0)"><svg viewBox="0 0 397.49759999999986 178.69971856258377" height="178.69971856258377" width="397.49759999999986"><g id="SvgjsG2480"><svg viewBox="0 0 397.49759999999986 178.69971856258377" height="178.69971856258377" width="397.49759999999986" id="SvgjsSvg2479"><g></g><g transform="matrix(1,0,0,1,0.9887999999999693,0)"><svg viewBox="0 0 395.5199999999999 117.31816131830007" height="117.31816131830007" width="395.5199999999999"><g transform="matrix(1,0,0,1,0,0)"><svg width="395.5199999999999" viewBox="0.65 -36.05 172.93 51.3" height="117.31816131830007" data-palette-color="url(#fcb089a8-a99f-4529-a14a-065c81209f6b)"></svg></g></svg></g><g transform="matrix(1,0,0,1,0,152.82443620456797)"><svg viewBox="0 0 232.20979199999994 25.87528235801581" height="25.87528235801581" width="232.20979199999994"><g transform="matrix(1,0,0,1,0,0)"><svg width="232.20979199999994" viewBox="1.95 -38 347.71000000000004 38.75" height="25.87528235801581" data-palette-color="url(#b4d711ee-4812-4c9b-b854-703bc460a095)"><path d="M16.5 0.6L16.5 0.6Q11.78 0.6 8.54-1.64 5.3-3.88 3.63-7.93 1.95-11.98 1.95-17.45L1.95-17.45Q1.95-22.88 3.6-26.93 5.25-30.98 8.46-33.21 11.68-35.45 16.35-35.45L16.35-35.45Q21.23-35.45 24.46-33.18 27.7-30.9 29.33-26.85 30.95-22.8 30.95-17.45L30.95-17.45Q30.95-11.98 29.28-7.93 27.6-3.88 24.38-1.64 21.15 0.6 16.5 0.6ZM16.5-4.75L16.5-4.75Q19.78-4.75 22.04-7.91 24.3-11.08 24.3-17.6L24.3-17.6Q24.3-23.88 22.19-27.06 20.08-30.25 16.35-30.25L16.35-30.25Q12.73-30.25 10.69-27.05 8.65-23.85 8.65-17.55L8.65-17.55Q8.65-11.03 10.81-7.89 12.98-4.75 16.5-4.75ZM49 0.7L49 0.7Q46.3 0.7 44.59-1 42.87-2.7 42.3-4.95L42.3-4.95 42.3 0 36.8 0 36.8-38 42.8-38 42.8-24.9 42.3-20.6Q42.7-22.3 43.89-23.4 45.07-24.5 46.6-25.03 48.12-25.55 49.55-25.55L49.55-25.55Q54.2-25.55 56.57-22.26 58.95-18.98 58.95-12.55L58.95-12.55Q58.95-8.08 57.61-5.14 56.27-2.2 54.01-0.75 51.75 0.7 49 0.7ZM47.55-4.25L47.55-4.25Q48.77-4.25 49.89-5.06 51-5.88 51.7-7.7 52.4-9.53 52.4-12.55L52.4-12.55Q52.4-16.75 50.98-18.6 49.57-20.45 47.65-20.45L47.65-20.45Q45.32-20.45 44.11-18.06 42.9-15.68 42.9-12.15L42.9-12.15Q42.9-8.63 44.14-6.44 45.37-4.25 47.55-4.25ZM71.59 0.45L71.59 0.45Q68.87 0.45 67.13-0.06 65.4-0.58 64.43-1.24 63.47-1.9 63.1-2.35L63.1-2.35 64.95-7.1Q66.05-6.2 67.76-5.33 69.47-4.45 71.75-4.45L71.75-4.45Q73.52-4.45 74.23-5.18 74.95-5.9 74.95-6.75L74.95-6.75Q74.95-7.93 73.32-8.88 71.7-9.83 69.55-10.75L69.55-10.75Q68.27-11.3 66.84-12.15 65.42-13 64.41-14.4 63.4-15.8 63.4-18L63.4-18Q63.4-21.38 65.86-23.39 68.32-25.4 72.84-25.4L72.84-25.4Q75.75-25.4 77.76-24.54 79.77-23.68 80.45-23L80.45-23 78.75-18.5Q77.77-19.25 76.27-19.93 74.77-20.6 73.05-20.6L73.05-20.6Q71.15-20.6 70.4-20.1 69.65-19.6 69.65-18.5L69.65-18.5Q69.65-17.28 70.98-16.49 72.32-15.7 74.2-14.95L74.2-14.95Q77.32-13.73 79.23-11.94 81.15-10.15 81.15-7.4L81.15-7.4Q81.15-5.35 80.2-3.56 79.25-1.78 77.15-0.66 75.05 0.45 71.59 0.45ZM96.74 0.65L96.74 0.65Q92.54 0.65 89.97-1.11 87.39-2.88 86.22-5.79 85.04-8.7 85.04-12.15L85.04-12.15Q85.04-15.78 86.38-18.81 87.72-21.85 90.31-23.68 92.89-25.5 96.64-25.5L96.64-25.5Q102.24-25.5 104.47-22.26 106.69-19.03 106.69-13.1L106.69-13.1Q106.69-12.58 106.67-11.78 106.64-10.98 106.59-10.4L106.59-10.4 91.59-10.4Q91.74-7.45 93.26-5.78 94.77-4.1 97.79-4.1L97.79-4.1Q99.34-4.1 101.12-4.79 102.89-5.48 103.74-6.45L103.74-6.45 105.74-1.7Q104.74-1.03 102.58-0.19 100.42 0.65 96.74 0.65ZM91.54-14.3L91.54-14.3 100.34-14.3Q100.34-16.93 99.88-18.31 99.42-19.7 98.62-20.23 97.82-20.75 96.79-20.75L96.79-20.75Q94.24-20.75 92.97-18.86 91.69-16.98 91.54-14.3ZM118.59 0L112.34 0 112.34-24.9 117.99-24.9 118.29-20.5Q118.69-21.48 119.53-22.58 120.37-23.68 121.85-24.44 123.34-25.2 125.69-25.2L125.69-25.2Q126.42-25.2 126.97-25.1 127.52-25 127.99-24.8L127.99-24.8 126.59-18.25Q125.79-19.05 124.14-19.05L124.14-19.05Q122.22-19.05 120.99-18.26 119.77-17.48 119.18-16.5 118.59-15.53 118.59-15L118.59-15 118.59 0ZM142.24 0L137.79 0 127.69-24.9 134.69-24.9 138.99-12.45 140.09-8.35 141.09-12.45 145.24-24.9 151.84-24.9 142.24 0ZM165.34 0.65L165.34 0.65Q161.14 0.65 158.56-1.11 155.99-2.88 154.81-5.79 153.64-8.7 153.64-12.15L153.64-12.15Q153.64-15.78 154.97-18.81 156.31-21.85 158.9-23.68 161.49-25.5 165.24-25.5L165.24-25.5Q170.84-25.5 173.06-22.26 175.29-19.03 175.29-13.1L175.29-13.1Q175.29-12.58 175.26-11.78 175.24-10.98 175.19-10.4L175.19-10.4 160.19-10.4Q160.34-7.45 161.85-5.78 163.36-4.1 166.39-4.1L166.39-4.1Q167.94-4.1 169.71-4.79 171.49-5.48 172.34-6.45L172.34-6.45 174.34-1.7Q173.34-1.03 171.17-0.19 169.01 0.65 165.34 0.65ZM160.14-14.3L160.14-14.3 168.94-14.3Q168.94-16.93 168.47-18.31 168.01-19.7 167.21-20.23 166.41-20.75 165.39-20.75L165.39-20.75Q162.84-20.75 161.56-18.86 160.29-16.98 160.14-14.3ZM198.88 0.75L198.88 0.75Q194.66 0.75 193.17-1.45 191.68-3.65 191.68-8.1L191.68-8.1 191.68-19.65 188.43-19.65 188.43-24.9 191.93-24.9 192.28-30.15 197.73-32.5 197.73-24.9 203.88-24.9 203.88-19.65 197.73-19.65 197.73-8.25Q197.73-6.08 198.34-5.24 198.96-4.4 200.03-4.4L200.03-4.4Q201.13-4.4 202.36-4.98 203.58-5.55 204.28-6.15L204.28-6.15 205.48-1.1Q204.71-0.55 203.47-0.14 202.23 0.28 200.97 0.51 199.71 0.75 198.88 0.75ZM219.53 0.5L219.53 0.5Q214.03 0.5 211.03-2.95 208.03-6.4 208.03-12.5L208.03-12.5Q208.03-18.65 211.13-22.08 214.23-25.5 219.73-25.5L219.73-25.5Q225.25-25.5 228.14-21.96 231.03-18.43 231.03-12.5L231.03-12.5Q231.03-6.58 228.04-3.04 225.05 0.5 219.53 0.5ZM219.63-4.5L219.63-4.5Q224.38-4.5 224.38-12.5L224.38-12.5Q224.38-20.55 219.63-20.55L219.63-20.55Q217.28-20.55 215.98-18.69 214.68-16.82 214.68-12.5L214.68-12.5Q214.68-8.2 215.98-6.35 217.28-4.5 219.63-4.5ZM252.52 0L246.42 0 246.42-38 252.52-38 252.52 0ZM269.12 0.65L269.12 0.65Q264.92 0.65 262.34-1.11 259.77-2.88 258.59-5.79 257.42-8.7 257.42-12.15L257.42-12.15Q257.42-15.78 258.76-18.81 260.09-21.85 262.68-23.68 265.27-25.5 269.02-25.5L269.02-25.5Q274.62-25.5 276.84-22.26 279.07-19.03 279.07-13.1L279.07-13.1Q279.07-12.58 279.05-11.78 279.02-10.98 278.97-10.4L278.97-10.4 263.97-10.4Q264.12-7.45 265.63-5.78 267.14-4.1 270.17-4.1L270.17-4.1Q271.72-4.1 273.5-4.79 275.27-5.48 276.12-6.45L276.12-6.45 278.12-1.7Q277.12-1.03 274.96-0.19 272.8 0.65 269.12 0.65ZM263.92-14.3L263.92-14.3 272.72-14.3Q272.72-16.93 272.26-18.31 271.8-19.7 271-20.23 270.19-20.75 269.17-20.75L269.17-20.75Q266.62-20.75 265.34-18.86 264.07-16.98 263.92-14.3ZM289.97 0.7L289.97 0.7Q287.67 0.7 286.15-0.33 284.64-1.35 283.9-3.05 283.17-4.75 283.17-6.8L283.17-6.8Q283.17-7.95 283.75-9.33 284.34-10.7 285.84-11.95 287.34-13.2 290.07-14 292.79-14.8 297.07-14.8L297.07-14.8 297.07-15.95Q297.07-17.8 296.18-19.03 295.29-20.25 292.62-20.25L292.62-20.25Q290.67-20.25 288.81-19.59 286.94-18.93 286.07-17.95L286.07-17.95 284.07-22.75Q285.57-23.78 288.08-24.64 290.59-25.5 293.67-25.5L293.67-25.5Q297.37-25.5 299.42-24.38 301.47-23.25 302.29-21.19 303.12-19.13 303.12-16.35L303.12-16.35 303.12 0 297.77 0 297.32-3.55Q294.72 0.7 289.97 0.7ZM292.62-4.1L292.62-4.1Q293.74-4.1 295.03-5.01 296.32-5.93 297.07-7.35L297.07-7.35 297.07-10.9Q296.82-10.95 296.53-10.95 296.24-10.95 295.87-10.95L295.87-10.95Q294.49-10.95 292.98-10.64 291.47-10.33 290.42-9.55 289.37-8.78 289.37-7.4L289.37-7.4Q289.37-5.6 290.17-4.85 290.97-4.1 292.62-4.1ZM315.81 0L309.56 0 309.56-24.9 315.22-24.9 315.51-20.5Q315.92-21.48 316.75-22.58 317.59-23.68 319.08-24.44 320.56-25.2 322.92-25.2L322.92-25.2Q323.64-25.2 324.19-25.1 324.74-25 325.22-24.8L325.22-24.8 323.81-18.25Q323.01-19.05 321.37-19.05L321.37-19.05Q319.44-19.05 318.22-18.26 316.99-17.48 316.4-16.5 315.81-15.53 315.81-15L315.81-15 315.81 0ZM335.31 0L328.91 0 328.91-24.9 334.71-24.9 334.84-21.63Q335.81-23.13 337.56-24.31 339.31-25.5 342.16-25.5L342.16-25.5Q345.96-25.5 347.81-23.1 349.66-20.7 349.66-16.45L349.66-16.45 349.66 0 343.26 0 343.26-15.9Q343.26-17.98 342.39-19.26 341.51-20.55 339.71-20.55L339.71-20.55Q337.96-20.55 336.64-19.26 335.31-17.98 335.31-15.9L335.31-15.9 335.31 0Z" opacity="1" transform="matrix(1,0,0,1,0,0)" fill="white" class="slogan-text-1" id="SvgjsPath2478"></path></svg></g></svg></g></svg></g></svg></g><g transform="matrix(1,0,0,1,0,2.034993443633809)"><svg viewBox="0 0 245.6535167999999 174.62973167531615" height="174.62973167531615" width="245.6535167999999"><g><svg xmlns="http://www.w3.org/2000/svg" viewBox="22.33 30.33 55.34 39.34" x="0" y="0" height="174.62973167531615" width="245.6535167999999" class="icon-icon-0" data-fill-palette-color="accent" id="SvgjsSvg2477"><g data-name="Layer 2" fill="black"><path d="M50 30.33C31.67 30.33 22.33 50 22.33 50S31.67 69.67 50 69.67 77.67 50 77.67 50 68.33 30.33 50 30.33M50 64A14 14 0 1 1 64 50 14 14 0 0 1 50 64M57.5 50A7.5 7.5 0 1 1 50 42.5 7.5 7.5 0 0 1 57.5 50" fill="black"></path></g></svg></g></svg></g></svg></g><defs><mask></mask></defs><mask><g id="SvgjsG2476"><svg viewBox="0 0 395.52 105.35830098788864" height="105.35830098788864" width="395.52"><g><svg viewBox="0 0 670.8471190513787 178.69971856258377" height="105.35830098788864" width="395.52"><g transform="matrix(1,0,0,1,273.3495190513789,0)"><svg viewBox="0 0 397.49759999999986 178.69971856258377" height="178.69971856258377" width="397.49759999999986"><g id="SvgjsG2475"><svg viewBox="0 0 397.49759999999986 178.69971856258377" height="178.69971856258377" width="397.49759999999986" id="SvgjsSvg2474"><g><rect width="397.49759999999986" height="10.579872860026782" x="0" y="129.78136233142064" fill="black" opacity="1" stroke-width="0" stroke="transparent" fill-opacity="1" class="rect-yte-0" rx="1%" id="SvgjsRect2473" data-palette-color="url(#fcb089a8-a99f-4529-a14a-065c81209f6b)"></rect></g><g transform="matrix(1,0,0,1,0.9887999999999693,0)"><svg viewBox="0 0 395.5199999999999 117.31816131830007" height="117.31816131830007" width="395.5199999999999"><g transform="matrix(1,0,0,1,0,0)"><svg width="395.5199999999999" viewBox="0.65 -36.05 172.93 51.3" height="117.31816131830007" data-palette-color="url(#fcb089a8-a99f-4529-a14a-065c81209f6b)"><path d="M17.4-27.7L17.4-27.7 17.6-29.25Q17.6-31.55 15.8-32.2L15.8-32.2Q14.4-32.65 13.65-32.65L13.65-32.65 13.6-32.65Q12.1-32.65 11-32.18 9.9-31.7 9.4-31L9.4-31Q8.35-29.55 8.2-27.95L8.2-27.95Q8.2-26.05 9.9-24.68 11.6-23.3 14.03-22.28 16.45-21.25 18.88-20.05 21.3-18.85 23-16.6 24.7-14.35 24.7-11.2L24.7-11.2Q24.7-5.05 20.83-2 16.95 1.05 12.03 1.05 7.1 1.05 3.88-1.18 0.65-3.4 0.65-7.15L0.65-7.15 0.65-7.2Q0.65-9.05 1.23-10.43 1.8-11.8 2.6-12.45L2.6-12.45Q4.25-13.8 5.6-13.9L5.6-13.9 6.2-13.95Q7.6-13.95 8.75-13.28 9.9-12.6 9.9-11.4L9.9-11.4Q9.9-10.8 9.25-10.4 8.6-10 8.13-9.2 7.65-8.4 7.6-7.85L7.6-7.85 7.5-7.3Q7.5-4.25 10.3-3.25L10.3-3.25Q11.3-2.9 11.9-2.9L11.9-2.9Q14.65-2.9 16.32-4.55 18-6.2 18-8.75L18-8.75Q18-11.8 15.4-13.7L15.4-13.7Q13.45-15.1 11.18-16.05 8.9-17 8.1-17.4 7.3-17.8 6.4-18.35 5.5-18.9 4.4-19.9L4.4-19.9Q2-22 2-25.58 2-29.15 3.95-31.6L3.95-31.6Q7.45-36.05 14.45-36.05L14.45-36.05Q18.15-36.05 20.7-34.63 23.25-33.2 23.25-30.7L23.25-30.7Q23.25-28.9 22.23-27.7 21.2-26.5 19.6-26.5L19.6-26.5Q18.85-26.5 18.13-26.8 17.4-27.1 17.4-27.7ZM31.75-12.7L31.75-12.7 31.8-11.45Q31.8-11.15 32.2-11.15L32.2-11.15Q33.8-11.3 35-11.98 36.2-12.65 36.8-13.5L36.8-13.5Q38-15.35 38.1-16.7L38.1-16.7 38.15-17.3Q38.15-20 36-20L36-20Q34.4-20 33.4-18.6L33.4-18.6Q31.75-16.4 31.75-12.7ZM42.65-6.05L42.65-6.05Q42.65-4.15 41.87-2.73 41.1-1.3 40.12-0.63 39.15 0.05 37.85 0.45L37.85 0.45Q36.2 0.95 34.7 0.95L34.7 0.95Q30.5 0.95 28.5-2.2 26.5-5.35 26.5-10.23 26.5-15.1 28.97-18.9 31.45-22.7 36.4-22.7L36.4-22.7Q40.9-22.7 42.5-19.55L42.5-19.55Q43.15-18.35 43.15-17.28 43.15-16.2 43.05-15.58 42.95-14.95 42.35-13.7 41.75-12.45 40.75-11.45 39.75-10.45 37.6-9.55 35.45-8.65 32.55-8.35L32.55-8.35Q32.15-8.35 32.15-8L32.15-8Q32.15-7.55 32.47-6.68 32.8-5.8 33.2-5.2L33.2-5.2Q34.3-3.8 36.45-3.8L36.45-3.8Q38.6-3.8 40.1-5.2L40.1-5.2Q40.9-5.95 41.4-7.05L41.4-7.05Q41.6-7.45 41.92-7.45 42.25-7.45 42.45-6.9 42.65-6.35 42.65-6.05ZM50.15-12.7L50.15-12.7 50.2-11.45Q50.2-11.15 50.6-11.15L50.6-11.15Q52.2-11.3 53.4-11.98 54.6-12.65 55.2-13.5L55.2-13.5Q56.4-15.35 56.5-16.7L56.5-16.7 56.55-17.3Q56.55-20 54.4-20L54.4-20Q52.8-20 51.8-18.6L51.8-18.6Q50.15-16.4 50.15-12.7ZM61.05-6.05L61.05-6.05Q61.05-4.15 60.27-2.73 59.5-1.3 58.52-0.63 57.55 0.05 56.25 0.45L56.25 0.45Q54.6 0.95 53.1 0.95L53.1 0.95Q48.9 0.95 46.9-2.2 44.9-5.35 44.9-10.23 44.9-15.1 47.37-18.9 49.85-22.7 54.8-22.7L54.8-22.7Q59.3-22.7 60.9-19.55L60.9-19.55Q61.55-18.35 61.55-17.28 61.55-16.2 61.45-15.58 61.34-14.95 60.75-13.7 60.15-12.45 59.15-11.45 58.15-10.45 56-9.55 53.85-8.65 50.95-8.35L50.95-8.35Q50.55-8.35 50.55-8L50.55-8Q50.55-7.55 50.87-6.68 51.2-5.8 51.6-5.2L51.6-5.2Q52.7-3.8 54.85-3.8L54.85-3.8Q57-3.8 58.5-5.2L58.5-5.2Q59.3-5.95 59.8-7.05L59.8-7.05Q60-7.45 60.32-7.45 60.65-7.45 60.84-6.9 61.05-6.35 61.05-6.05ZM88.69-27.7L88.69-27.7 88.89-29.25Q88.89-31.55 87.09-32.2L87.09-32.2Q85.69-32.65 84.94-32.65L84.94-32.65 84.89-32.65Q83.39-32.65 82.29-32.18 81.19-31.7 80.69-31L80.69-31Q79.64-29.55 79.49-27.95L79.49-27.95Q79.49-26.05 81.19-24.68 82.89-23.3 85.32-22.28 87.74-21.25 90.17-20.05 92.59-18.85 94.29-16.6 95.99-14.35 95.99-11.2L95.99-11.2Q95.99-5.05 92.12-2 88.24 1.05 83.32 1.05 78.39 1.05 75.17-1.18 71.94-3.4 71.94-7.15L71.94-7.15 71.94-7.2Q71.94-9.05 72.52-10.43 73.09-11.8 73.89-12.45L73.89-12.45Q75.54-13.8 76.89-13.9L76.89-13.9 77.49-13.95Q78.89-13.95 80.04-13.28 81.19-12.6 81.19-11.4L81.19-11.4Q81.19-10.8 80.54-10.4 79.89-10 79.42-9.2 78.94-8.4 78.89-7.85L78.89-7.85 78.79-7.3Q78.79-4.25 81.59-3.25L81.59-3.25Q82.59-2.9 83.19-2.9L83.19-2.9Q85.94-2.9 87.62-4.55 89.29-6.2 89.29-8.75L89.29-8.75Q89.29-11.8 86.69-13.7L86.69-13.7Q84.74-15.1 82.47-16.05 80.19-17 79.39-17.4 78.59-17.8 77.69-18.35 76.79-18.9 75.69-19.9L75.69-19.9Q73.29-22 73.29-25.58 73.29-29.15 75.24-31.6L75.24-31.6Q78.74-36.05 85.74-36.05L85.74-36.05Q89.44-36.05 91.99-34.63 94.54-33.2 94.54-30.7L94.54-30.7Q94.54-28.9 93.52-27.7 92.49-26.5 90.89-26.5L90.89-26.5Q90.14-26.5 89.42-26.8 88.69-27.1 88.69-27.7ZM98.79-7.65L98.79-7.65Q98.89-12.7 98.89-15.95 98.89-19.2 98.44-22.15L98.44-22.15Q98.44-22.65 99.44-22.65 100.44-22.65 101.16-22.4 101.89-22.15 102.19-21.85L102.19-21.85Q102.99-21.05 103.11-21.05 103.24-21.05 103.89-21.5L103.89-21.5Q105.84-22.75 108.21-22.75 110.59-22.75 112.36-21.55 114.14-20.35 114.89-18.4L114.89-18.4Q116.24-15.05 116.24-11.3L116.24-11.3Q116.24-7.6 114.89-3.9L114.89-3.9Q114.14-1.9 112.69-0.63 111.24 0.65 109.29 0.65L109.29 0.65Q105.44 0.65 105.44-3.8L105.44-3.8Q105.44-5 105.94-5L105.94-5Q106.04-5 106.51-4.78 106.99-4.55 107.44-4.55L107.44-4.55Q110.99-4.55 110.99-12.08 110.99-19.6 107.19-19.6L107.19-19.6Q106.14-19.6 105.41-19.13 104.69-18.65 104.49-18.2L104.49-18.2 104.29-17.7Q103.59-13.2 103.59-0.35L103.59-0.35Q103.59 5.45 103.81 7.98 104.04 10.5 104.04 11 104.04 11.5 103.74 11.9L103.74 11.9Q102.74 13.2 101.04 14.23 99.34 15.25 98.04 15.25L98.04 15.25Q97.54 15.25 97.54 14.6L97.54 14.6Q98.34 9.55 98.79-7.65ZM135.39-15L135.39-15 135.29-8.6Q135.29-1.95 136.74-0.6L136.74-0.6Q136.94-0.4 136.94-0.15L136.94-0.15Q136.94 0.6 133.71 0.6 130.49 0.6 130.29-1.3L130.29-1.3Q130.24-1.75 130.24-3.15L130.24-3.15 130.44-11.15Q130.44-11.5 130.04-11.5L130.04-11.5Q127.64-11.5 125.54-10.15 123.44-8.8 123.44-6.7L123.44-6.7Q123.44-5.6 124.04-4.85 124.64-4.1 125.51-4.1 126.39-4.1 126.96-4.45 127.54-4.8 127.64-4.85L127.64-4.85Q128.49-4.75 128.49-3.08 128.49-1.4 126.94-0.38 125.39 0.65 123.69 0.65 121.99 0.65 120.76 0.05 119.54-0.55 118.99-1.3 118.44-2.05 118.09-3L118.09-3Q117.74-4.15 117.74-5L117.74-5Q117.74-8.5 119.94-10.6 122.14-12.7 125.59-13.6L125.59-13.6Q130.14-14.5 130.34-15.25L130.34-15.25Q130.49-15.8 130.49-17.1L130.49-17.1Q130.49-19.75 127.79-19.75L127.79-19.75Q126.64-19.75 125.74-19.03 124.84-18.3 124.84-17.2L124.84-17.2 125.14-16Q125.04-15.15 123.34-15L123.34-15 122.79-14.95Q121.29-14.95 120.41-15.7 119.54-16.45 119.54-17.7L119.54-17.7Q119.54-18.5 120.06-19.48 120.59-20.45 121.39-21.05 122.19-21.65 123.86-22.13 125.54-22.6 127.09-22.6 128.64-22.6 129.49-22.5 130.34-22.4 131.81-22.03 133.29-21.65 134.26-20.6 135.24-19.55 135.31-18.38 135.39-17.2 135.39-15ZM154.78-5.75L154.78-5.75Q154.78-2.9 152.51-1.03 150.23 0.85 147.08 0.85L147.08 0.85Q142.48 0.85 140.33-1.93 138.18-4.7 138.18-9.45L138.18-9.45Q138.18-14.5 140.43-18.4L140.43-18.4Q141.53-20.4 143.58-21.55 145.63-22.7 148.38-22.7L148.38-22.7Q152.53-22.7 154.23-19.9L154.23-19.9Q154.93-18.75 154.93-17.2L154.93-17.2Q154.93-14.8 152.93-13.6L152.93-13.6Q152.13-13.15 151.46-13.15 150.78-13.15 150.36-13.23 149.93-13.3 149.23-13.9 148.53-14.5 148.53-15.55L148.53-15.55Q148.58-16.1 149.38-16.45L149.38-16.45Q150.13-16.9 150.13-18.05L150.13-18.05Q150.13-20 147.73-20L147.73-20Q147.13-20 146.31-19.48 145.48-18.95 144.93-18.13 144.38-17.3 143.91-15.53 143.43-13.75 143.43-12.13 143.43-10.5 143.56-9.68 143.68-8.85 144.11-7.43 144.53-6 145.71-5.1 146.88-4.2 148.63-4.2L148.63-4.2Q150.73-4.2 152.33-5.95L152.33-5.95Q152.98-6.65 153.38-7.65L153.38-7.65Q153.58-8.05 153.88-8.05L153.88-8.05Q154.33-8.05 154.56-7.23 154.78-6.4 154.78-5.75ZM162.18-12.7L162.18-12.7 162.23-11.45Q162.23-11.15 162.63-11.15L162.63-11.15Q164.23-11.3 165.43-11.98 166.63-12.65 167.23-13.5L167.23-13.5Q168.43-15.35 168.53-16.7L168.53-16.7 168.58-17.3Q168.58-20 166.43-20L166.43-20Q164.83-20 163.83-18.6L163.83-18.6Q162.18-16.4 162.18-12.7ZM173.08-6.05L173.08-6.05Q173.08-4.15 172.31-2.73 171.53-1.3 170.56-0.63 169.58 0.05 168.28 0.45L168.28 0.45Q166.63 0.95 165.13 0.95L165.13 0.95Q160.93 0.95 158.93-2.2 156.93-5.35 156.93-10.23 156.93-15.1 159.41-18.9 161.88-22.7 166.83-22.7L166.83-22.7Q171.33-22.7 172.93-19.55L172.93-19.55Q173.58-18.35 173.58-17.28 173.58-16.2 173.48-15.58 173.38-14.95 172.78-13.7 172.18-12.45 171.18-11.45 170.18-10.45 168.03-9.55 165.88-8.65 162.98-8.35L162.98-8.35Q162.58-8.35 162.58-8L162.58-8Q162.58-7.55 162.91-6.68 163.23-5.8 163.63-5.2L163.63-5.2Q164.73-3.8 166.88-3.8L166.88-3.8Q169.03-3.8 170.53-5.2L170.53-5.2Q171.33-5.95 171.83-7.05L171.83-7.05Q172.03-7.45 172.36-7.45 172.68-7.45 172.88-6.9 173.08-6.35 173.08-6.05Z" opacity="1" transform="matrix(1,0,0,1,0,0)" fill="black" class="wordmark-text-0" id="SvgjsPath2472"></path></svg></g></svg></g><g transform="matrix(1,0,0,1,0,152.82443620456797)"><svg viewBox="0 0 232.20979199999994 25.87528235801581" height="25.87528235801581" width="232.20979199999994"><g transform="matrix(1,0,0,1,0,0)"><svg width="232.20979199999994" viewBox="1.95 -38 347.71000000000004 38.75" height="25.87528235801581" data-palette-color="url(#b4d711ee-4812-4c9b-b854-703bc460a095)"><path d="M16.5 0.6L16.5 0.6Q11.78 0.6 8.54-1.64 5.3-3.88 3.63-7.93 1.95-11.98 1.95-17.45L1.95-17.45Q1.95-22.88 3.6-26.93 5.25-30.98 8.46-33.21 11.68-35.45 16.35-35.45L16.35-35.45Q21.23-35.45 24.46-33.18 27.7-30.9 29.33-26.85 30.95-22.8 30.95-17.45L30.95-17.45Q30.95-11.98 29.28-7.93 27.6-3.88 24.38-1.64 21.15 0.6 16.5 0.6ZM16.5-4.75L16.5-4.75Q19.78-4.75 22.04-7.91 24.3-11.08 24.3-17.6L24.3-17.6Q24.3-23.88 22.19-27.06 20.08-30.25 16.35-30.25L16.35-30.25Q12.73-30.25 10.69-27.05 8.65-23.85 8.65-17.55L8.65-17.55Q8.65-11.03 10.81-7.89 12.98-4.75 16.5-4.75ZM49 0.7L49 0.7Q46.3 0.7 44.59-1 42.87-2.7 42.3-4.95L42.3-4.95 42.3 0 36.8 0 36.8-38 42.8-38 42.8-24.9 42.3-20.6Q42.7-22.3 43.89-23.4 45.07-24.5 46.6-25.03 48.12-25.55 49.55-25.55L49.55-25.55Q54.2-25.55 56.57-22.26 58.95-18.98 58.95-12.55L58.95-12.55Q58.95-8.08 57.61-5.14 56.27-2.2 54.01-0.75 51.75 0.7 49 0.7ZM47.55-4.25L47.55-4.25Q48.77-4.25 49.89-5.06 51-5.88 51.7-7.7 52.4-9.53 52.4-12.55L52.4-12.55Q52.4-16.75 50.98-18.6 49.57-20.45 47.65-20.45L47.65-20.45Q45.32-20.45 44.11-18.06 42.9-15.68 42.9-12.15L42.9-12.15Q42.9-8.63 44.14-6.44 45.37-4.25 47.55-4.25ZM71.59 0.45L71.59 0.45Q68.87 0.45 67.13-0.06 65.4-0.58 64.43-1.24 63.47-1.9 63.1-2.35L63.1-2.35 64.95-7.1Q66.05-6.2 67.76-5.33 69.47-4.45 71.75-4.45L71.75-4.45Q73.52-4.45 74.23-5.18 74.95-5.9 74.95-6.75L74.95-6.75Q74.95-7.93 73.32-8.88 71.7-9.83 69.55-10.75L69.55-10.75Q68.27-11.3 66.84-12.15 65.42-13 64.41-14.4 63.4-15.8 63.4-18L63.4-18Q63.4-21.38 65.86-23.39 68.32-25.4 72.84-25.4L72.84-25.4Q75.75-25.4 77.76-24.54 79.77-23.68 80.45-23L80.45-23 78.75-18.5Q77.77-19.25 76.27-19.93 74.77-20.6 73.05-20.6L73.05-20.6Q71.15-20.6 70.4-20.1 69.65-19.6 69.65-18.5L69.65-18.5Q69.65-17.28 70.98-16.49 72.32-15.7 74.2-14.95L74.2-14.95Q77.32-13.73 79.23-11.94 81.15-10.15 81.15-7.4L81.15-7.4Q81.15-5.35 80.2-3.56 79.25-1.78 77.15-0.66 75.05 0.45 71.59 0.45ZM96.74 0.65L96.74 0.65Q92.54 0.65 89.97-1.11 87.39-2.88 86.22-5.79 85.04-8.7 85.04-12.15L85.04-12.15Q85.04-15.78 86.38-18.81 87.72-21.85 90.31-23.68 92.89-25.5 96.64-25.5L96.64-25.5Q102.24-25.5 104.47-22.26 106.69-19.03 106.69-13.1L106.69-13.1Q106.69-12.58 106.67-11.78 106.64-10.98 106.59-10.4L106.59-10.4 91.59-10.4Q91.74-7.45 93.26-5.78 94.77-4.1 97.79-4.1L97.79-4.1Q99.34-4.1 101.12-4.79 102.89-5.48 103.74-6.45L103.74-6.45 105.74-1.7Q104.74-1.03 102.58-0.19 100.42 0.65 96.74 0.65ZM91.54-14.3L91.54-14.3 100.34-14.3Q100.34-16.93 99.88-18.31 99.42-19.7 98.62-20.23 97.82-20.75 96.79-20.75L96.79-20.75Q94.24-20.75 92.97-18.86 91.69-16.98 91.54-14.3ZM118.59 0L112.34 0 112.34-24.9 117.99-24.9 118.29-20.5Q118.69-21.48 119.53-22.58 120.37-23.68 121.85-24.44 123.34-25.2 125.69-25.2L125.69-25.2Q126.42-25.2 126.97-25.1 127.52-25 127.99-24.8L127.99-24.8 126.59-18.25Q125.79-19.05 124.14-19.05L124.14-19.05Q122.22-19.05 120.99-18.26 119.77-17.48 119.18-16.5 118.59-15.53 118.59-15L118.59-15 118.59 0ZM142.24 0L137.79 0 127.69-24.9 134.69-24.9 138.99-12.45 140.09-8.35 141.09-12.45 145.24-24.9 151.84-24.9 142.24 0ZM165.34 0.65L165.34 0.65Q161.14 0.65 158.56-1.11 155.99-2.88 154.81-5.79 153.64-8.7 153.64-12.15L153.64-12.15Q153.64-15.78 154.97-18.81 156.31-21.85 158.9-23.68 161.49-25.5 165.24-25.5L165.24-25.5Q170.84-25.5 173.06-22.26 175.29-19.03 175.29-13.1L175.29-13.1Q175.29-12.58 175.26-11.78 175.24-10.98 175.19-10.4L175.19-10.4 160.19-10.4Q160.34-7.45 161.85-5.78 163.36-4.1 166.39-4.1L166.39-4.1Q167.94-4.1 169.71-4.79 171.49-5.48 172.34-6.45L172.34-6.45 174.34-1.7Q173.34-1.03 171.17-0.19 169.01 0.65 165.34 0.65ZM160.14-14.3L160.14-14.3 168.94-14.3Q168.94-16.93 168.47-18.31 168.01-19.7 167.21-20.23 166.41-20.75 165.39-20.75L165.39-20.75Q162.84-20.75 161.56-18.86 160.29-16.98 160.14-14.3ZM198.88 0.75L198.88 0.75Q194.66 0.75 193.17-1.45 191.68-3.65 191.68-8.1L191.68-8.1 191.68-19.65 188.43-19.65 188.43-24.9 191.93-24.9 192.28-30.15 197.73-32.5 197.73-24.9 203.88-24.9 203.88-19.65 197.73-19.65 197.73-8.25Q197.73-6.08 198.34-5.24 198.96-4.4 200.03-4.4L200.03-4.4Q201.13-4.4 202.36-4.98 203.58-5.55 204.28-6.15L204.28-6.15 205.48-1.1Q204.71-0.55 203.47-0.14 202.23 0.28 200.97 0.51 199.71 0.75 198.88 0.75ZM219.53 0.5L219.53 0.5Q214.03 0.5 211.03-2.95 208.03-6.4 208.03-12.5L208.03-12.5Q208.03-18.65 211.13-22.08 214.23-25.5 219.73-25.5L219.73-25.5Q225.25-25.5 228.14-21.96 231.03-18.43 231.03-12.5L231.03-12.5Q231.03-6.58 228.04-3.04 225.05 0.5 219.53 0.5ZM219.63-4.5L219.63-4.5Q224.38-4.5 224.38-12.5L224.38-12.5Q224.38-20.55 219.63-20.55L219.63-20.55Q217.28-20.55 215.98-18.69 214.68-16.82 214.68-12.5L214.68-12.5Q214.68-8.2 215.98-6.35 217.28-4.5 219.63-4.5ZM252.52 0L246.42 0 246.42-38 252.52-38 252.52 0ZM269.12 0.65L269.12 0.65Q264.92 0.65 262.34-1.11 259.77-2.88 258.59-5.79 257.42-8.7 257.42-12.15L257.42-12.15Q257.42-15.78 258.76-18.81 260.09-21.85 262.68-23.68 265.27-25.5 269.02-25.5L269.02-25.5Q274.62-25.5 276.84-22.26 279.07-19.03 279.07-13.1L279.07-13.1Q279.07-12.58 279.05-11.78 279.02-10.98 278.97-10.4L278.97-10.4 263.97-10.4Q264.12-7.45 265.63-5.78 267.14-4.1 270.17-4.1L270.17-4.1Q271.72-4.1 273.5-4.79 275.27-5.48 276.12-6.45L276.12-6.45 278.12-1.7Q277.12-1.03 274.96-0.19 272.8 0.65 269.12 0.65ZM263.92-14.3L263.92-14.3 272.72-14.3Q272.72-16.93 272.26-18.31 271.8-19.7 271-20.23 270.19-20.75 269.17-20.75L269.17-20.75Q266.62-20.75 265.34-18.86 264.07-16.98 263.92-14.3ZM289.97 0.7L289.97 0.7Q287.67 0.7 286.15-0.33 284.64-1.35 283.9-3.05 283.17-4.75 283.17-6.8L283.17-6.8Q283.17-7.95 283.75-9.33 284.34-10.7 285.84-11.95 287.34-13.2 290.07-14 292.79-14.8 297.07-14.8L297.07-14.8 297.07-15.95Q297.07-17.8 296.18-19.03 295.29-20.25 292.62-20.25L292.62-20.25Q290.67-20.25 288.81-19.59 286.94-18.93 286.07-17.95L286.07-17.95 284.07-22.75Q285.57-23.78 288.08-24.64 290.59-25.5 293.67-25.5L293.67-25.5Q297.37-25.5 299.42-24.38 301.47-23.25 302.29-21.19 303.12-19.13 303.12-16.35L303.12-16.35 303.12 0 297.77 0 297.32-3.55Q294.72 0.7 289.97 0.7ZM292.62-4.1L292.62-4.1Q293.74-4.1 295.03-5.01 296.32-5.93 297.07-7.35L297.07-7.35 297.07-10.9Q296.82-10.95 296.53-10.95 296.24-10.95 295.87-10.95L295.87-10.95Q294.49-10.95 292.98-10.64 291.47-10.33 290.42-9.55 289.37-8.78 289.37-7.4L289.37-7.4Q289.37-5.6 290.17-4.85 290.97-4.1 292.62-4.1ZM315.81 0L309.56 0 309.56-24.9 315.22-24.9 315.51-20.5Q315.92-21.48 316.75-22.58 317.59-23.68 319.08-24.44 320.56-25.2 322.92-25.2L322.92-25.2Q323.64-25.2 324.19-25.1 324.74-25 325.22-24.8L325.22-24.8 323.81-18.25Q323.01-19.05 321.37-19.05L321.37-19.05Q319.44-19.05 318.22-18.26 316.99-17.48 316.4-16.5 315.81-15.53 315.81-15L315.81-15 315.81 0ZM335.31 0L328.91 0 328.91-24.9 334.71-24.9 334.84-21.63Q335.81-23.13 337.56-24.31 339.31-25.5 342.16-25.5L342.16-25.5Q345.96-25.5 347.81-23.1 349.66-20.7 349.66-16.45L349.66-16.45 349.66 0 343.26 0 343.26-15.9Q343.26-17.98 342.39-19.26 341.51-20.55 339.71-20.55L339.71-20.55Q337.96-20.55 336.64-19.26 335.31-17.98 335.31-15.9L335.31-15.9 335.31 0Z" opacity="1" transform="matrix(1,0,0,1,0,0)" fill="black" class="slogan-text-1" id="SvgjsPath2471"></path></svg></g></svg></g></svg></g></svg></g><g transform="matrix(1,0,0,1,0,2.034993443633809)"><svg viewBox="0 0 245.6535167999999 174.62973167531615" height="174.62973167531615" width="245.6535167999999"><g><svg xmlns="http://www.w3.org/2000/svg" viewBox="22.33 30.33 55.34 39.34" x="0" y="0" height="174.62973167531615" width="245.6535167999999" class="icon-icon-0" data-fill-palette-color="accent" id="SvgjsSvg2470"><g data-name="Layer 2" fill="black"><path d="M50 30.33C31.67 30.33 22.33 50 22.33 50S31.67 69.67 50 69.67 77.67 50 77.67 50 68.33 30.33 50 30.33M50 64A14 14 0 1 1 64 50 14 14 0 0 1 50 64M57.5 50A7.5 7.5 0 1 1 50 42.5 7.5 7.5 0 0 1 57.5 50" fill="black"></path></g></svg></g></svg></g></svg></g><defs><mask></mask></defs></svg><rect width="395.52" height="105.35830098788864" fill="black" stroke="none" visibility="hidden"></rect></g></mask></svg><rect width="395.52" height="105.35830098788864" fill="black" stroke="none" visibility="hidden"></rect></g></mask><linearGradient x1="0.054" x2="0.941" y1="0.5" y2="0.5" id="b4d711ee-4812-4c9b-b854-703bc460a095"><stop stop-color="#864d25" offset="0"></stop><stop stop-color="#f1c4b3" offset="0.498"></stop><stop stop-color="#864d25" offset="1"></stop></linearGradient><rect width="395.52" height="105.35830098788864" fill="url(#b4d711ee-4812-4c9b-b854-703bc460a095)" mask="url(#d1dc83bb-e652-4e26-bcbc-9d5a88be1a28)" data-fill-palette-color="secondary"></rect><mask id="f3c1c645-a779-4154-b5da-a887ceeb25fb"><g id="SvgjsG2504"><svg viewBox="0 0 395.52 105.35830098788864" height="105.35830098788864" width="395.52"><g><svg viewBox="0 0 670.8471190513787 178.69971856258377" height="105.35830098788864" width="395.52"><g transform="matrix(1,0,0,1,273.3495190513789,0)"><svg viewBox="0 0 397.49759999999986 178.69971856258377" height="178.69971856258377" width="397.49759999999986"><g id="SvgjsG2503"><svg viewBox="0 0 397.49759999999986 178.69971856258377" height="178.69971856258377" width="397.49759999999986" id="SvgjsSvg2502"><g></g><g transform="matrix(1,0,0,1,0.9887999999999693,0)"><svg viewBox="0 0 395.5199999999999 117.31816131830007" height="117.31816131830007" width="395.5199999999999"><g transform="matrix(1,0,0,1,0,0)"><svg width="395.5199999999999" viewBox="0.65 -36.05 172.93 51.3" height="117.31816131830007" data-palette-color="url(#fcb089a8-a99f-4529-a14a-065c81209f6b)"></svg></g></svg></g><g transform="matrix(1,0,0,1,0,152.82443620456797)"><svg viewBox="0 0 232.20979199999994 25.87528235801581" height="25.87528235801581" width="232.20979199999994"><g transform="matrix(1,0,0,1,0,0)"><svg width="232.20979199999994" viewBox="1.95 -38 347.71000000000004 38.75" height="25.87528235801581" data-palette-color="url(#b4d711ee-4812-4c9b-b854-703bc460a095)"></svg></g></svg></g></svg></g></svg></g><g transform="matrix(1,0,0,1,0,2.034993443633809)"><svg viewBox="0 0 245.6535167999999 174.62973167531615" height="174.62973167531615" width="245.6535167999999"><g><svg xmlns="http://www.w3.org/2000/svg" viewBox="22.33 30.33 55.34 39.34" x="0" y="0" height="174.62973167531615" width="245.6535167999999" class="icon-icon-0" data-fill-palette-color="accent" id="SvgjsSvg2501"><g data-name="Layer 2" fill="white"><path d="M50 30.33C31.67 30.33 22.33 50 22.33 50S31.67 69.67 50 69.67 77.67 50 77.67 50 68.33 30.33 50 30.33M50 64A14 14 0 1 1 64 50 14 14 0 0 1 50 64M57.5 50A7.5 7.5 0 1 1 50 42.5 7.5 7.5 0 0 1 57.5 50" fill="white"></path></g></svg></g></svg></g></svg></g><defs><mask></mask></defs><mask><g id="SvgjsG2500"><svg viewBox="0 0 395.52 105.35830098788864" height="105.35830098788864" width="395.52"><g><svg viewBox="0 0 670.8471190513787 178.69971856258377" height="105.35830098788864" width="395.52"><g transform="matrix(1,0,0,1,273.3495190513789,0)"><svg viewBox="0 0 397.49759999999986 178.69971856258377" height="178.69971856258377" width="397.49759999999986"><g id="SvgjsG2499"><svg viewBox="0 0 397.49759999999986 178.69971856258377" height="178.69971856258377" width="397.49759999999986" id="SvgjsSvg2498"><g><rect width="397.49759999999986" height="10.579872860026782" x="0" y="129.78136233142064" fill="black" opacity="1" stroke-width="0" stroke="transparent" fill-opacity="1" class="rect-yte-0" rx="1%" id="SvgjsRect2497" data-palette-color="url(#fcb089a8-a99f-4529-a14a-065c81209f6b)"></rect></g><g transform="matrix(1,0,0,1,0.9887999999999693,0)"><svg viewBox="0 0 395.5199999999999 117.31816131830007" height="117.31816131830007" width="395.5199999999999"><g transform="matrix(1,0,0,1,0,0)"><svg width="395.5199999999999" viewBox="0.65 -36.05 172.93 51.3" height="117.31816131830007" data-palette-color="url(#fcb089a8-a99f-4529-a14a-065c81209f6b)"><path d="M17.4-27.7L17.4-27.7 17.6-29.25Q17.6-31.55 15.8-32.2L15.8-32.2Q14.4-32.65 13.65-32.65L13.65-32.65 13.6-32.65Q12.1-32.65 11-32.18 9.9-31.7 9.4-31L9.4-31Q8.35-29.55 8.2-27.95L8.2-27.95Q8.2-26.05 9.9-24.68 11.6-23.3 14.03-22.28 16.45-21.25 18.88-20.05 21.3-18.85 23-16.6 24.7-14.35 24.7-11.2L24.7-11.2Q24.7-5.05 20.83-2 16.95 1.05 12.03 1.05 7.1 1.05 3.88-1.18 0.65-3.4 0.65-7.15L0.65-7.15 0.65-7.2Q0.65-9.05 1.23-10.43 1.8-11.8 2.6-12.45L2.6-12.45Q4.25-13.8 5.6-13.9L5.6-13.9 6.2-13.95Q7.6-13.95 8.75-13.28 9.9-12.6 9.9-11.4L9.9-11.4Q9.9-10.8 9.25-10.4 8.6-10 8.13-9.2 7.65-8.4 7.6-7.85L7.6-7.85 7.5-7.3Q7.5-4.25 10.3-3.25L10.3-3.25Q11.3-2.9 11.9-2.9L11.9-2.9Q14.65-2.9 16.32-4.55 18-6.2 18-8.75L18-8.75Q18-11.8 15.4-13.7L15.4-13.7Q13.45-15.1 11.18-16.05 8.9-17 8.1-17.4 7.3-17.8 6.4-18.35 5.5-18.9 4.4-19.9L4.4-19.9Q2-22 2-25.58 2-29.15 3.95-31.6L3.95-31.6Q7.45-36.05 14.45-36.05L14.45-36.05Q18.15-36.05 20.7-34.63 23.25-33.2 23.25-30.7L23.25-30.7Q23.25-28.9 22.23-27.7 21.2-26.5 19.6-26.5L19.6-26.5Q18.85-26.5 18.13-26.8 17.4-27.1 17.4-27.7ZM31.75-12.7L31.75-12.7 31.8-11.45Q31.8-11.15 32.2-11.15L32.2-11.15Q33.8-11.3 35-11.98 36.2-12.65 36.8-13.5L36.8-13.5Q38-15.35 38.1-16.7L38.1-16.7 38.15-17.3Q38.15-20 36-20L36-20Q34.4-20 33.4-18.6L33.4-18.6Q31.75-16.4 31.75-12.7ZM42.65-6.05L42.65-6.05Q42.65-4.15 41.87-2.73 41.1-1.3 40.12-0.63 39.15 0.05 37.85 0.45L37.85 0.45Q36.2 0.95 34.7 0.95L34.7 0.95Q30.5 0.95 28.5-2.2 26.5-5.35 26.5-10.23 26.5-15.1 28.97-18.9 31.45-22.7 36.4-22.7L36.4-22.7Q40.9-22.7 42.5-19.55L42.5-19.55Q43.15-18.35 43.15-17.28 43.15-16.2 43.05-15.58 42.95-14.95 42.35-13.7 41.75-12.45 40.75-11.45 39.75-10.45 37.6-9.55 35.45-8.65 32.55-8.35L32.55-8.35Q32.15-8.35 32.15-8L32.15-8Q32.15-7.55 32.47-6.68 32.8-5.8 33.2-5.2L33.2-5.2Q34.3-3.8 36.45-3.8L36.45-3.8Q38.6-3.8 40.1-5.2L40.1-5.2Q40.9-5.95 41.4-7.05L41.4-7.05Q41.6-7.45 41.92-7.45 42.25-7.45 42.45-6.9 42.65-6.35 42.65-6.05ZM50.15-12.7L50.15-12.7 50.2-11.45Q50.2-11.15 50.6-11.15L50.6-11.15Q52.2-11.3 53.4-11.98 54.6-12.65 55.2-13.5L55.2-13.5Q56.4-15.35 56.5-16.7L56.5-16.7 56.55-17.3Q56.55-20 54.4-20L54.4-20Q52.8-20 51.8-18.6L51.8-18.6Q50.15-16.4 50.15-12.7ZM61.05-6.05L61.05-6.05Q61.05-4.15 60.27-2.73 59.5-1.3 58.52-0.63 57.55 0.05 56.25 0.45L56.25 0.45Q54.6 0.95 53.1 0.95L53.1 0.95Q48.9 0.95 46.9-2.2 44.9-5.35 44.9-10.23 44.9-15.1 47.37-18.9 49.85-22.7 54.8-22.7L54.8-22.7Q59.3-22.7 60.9-19.55L60.9-19.55Q61.55-18.35 61.55-17.28 61.55-16.2 61.45-15.58 61.34-14.95 60.75-13.7 60.15-12.45 59.15-11.45 58.15-10.45 56-9.55 53.85-8.65 50.95-8.35L50.95-8.35Q50.55-8.35 50.55-8L50.55-8Q50.55-7.55 50.87-6.68 51.2-5.8 51.6-5.2L51.6-5.2Q52.7-3.8 54.85-3.8L54.85-3.8Q57-3.8 58.5-5.2L58.5-5.2Q59.3-5.95 59.8-7.05L59.8-7.05Q60-7.45 60.32-7.45 60.65-7.45 60.84-6.9 61.05-6.35 61.05-6.05ZM88.69-27.7L88.69-27.7 88.89-29.25Q88.89-31.55 87.09-32.2L87.09-32.2Q85.69-32.65 84.94-32.65L84.94-32.65 84.89-32.65Q83.39-32.65 82.29-32.18 81.19-31.7 80.69-31L80.69-31Q79.64-29.55 79.49-27.95L79.49-27.95Q79.49-26.05 81.19-24.68 82.89-23.3 85.32-22.28 87.74-21.25 90.17-20.05 92.59-18.85 94.29-16.6 95.99-14.35 95.99-11.2L95.99-11.2Q95.99-5.05 92.12-2 88.24 1.05 83.32 1.05 78.39 1.05 75.17-1.18 71.94-3.4 71.94-7.15L71.94-7.15 71.94-7.2Q71.94-9.05 72.52-10.43 73.09-11.8 73.89-12.45L73.89-12.45Q75.54-13.8 76.89-13.9L76.89-13.9 77.49-13.95Q78.89-13.95 80.04-13.28 81.19-12.6 81.19-11.4L81.19-11.4Q81.19-10.8 80.54-10.4 79.89-10 79.42-9.2 78.94-8.4 78.89-7.85L78.89-7.85 78.79-7.3Q78.79-4.25 81.59-3.25L81.59-3.25Q82.59-2.9 83.19-2.9L83.19-2.9Q85.94-2.9 87.62-4.55 89.29-6.2 89.29-8.75L89.29-8.75Q89.29-11.8 86.69-13.7L86.69-13.7Q84.74-15.1 82.47-16.05 80.19-17 79.39-17.4 78.59-17.8 77.69-18.35 76.79-18.9 75.69-19.9L75.69-19.9Q73.29-22 73.29-25.58 73.29-29.15 75.24-31.6L75.24-31.6Q78.74-36.05 85.74-36.05L85.74-36.05Q89.44-36.05 91.99-34.63 94.54-33.2 94.54-30.7L94.54-30.7Q94.54-28.9 93.52-27.7 92.49-26.5 90.89-26.5L90.89-26.5Q90.14-26.5 89.42-26.8 88.69-27.1 88.69-27.7ZM98.79-7.65L98.79-7.65Q98.89-12.7 98.89-15.95 98.89-19.2 98.44-22.15L98.44-22.15Q98.44-22.65 99.44-22.65 100.44-22.65 101.16-22.4 101.89-22.15 102.19-21.85L102.19-21.85Q102.99-21.05 103.11-21.05 103.24-21.05 103.89-21.5L103.89-21.5Q105.84-22.75 108.21-22.75 110.59-22.75 112.36-21.55 114.14-20.35 114.89-18.4L114.89-18.4Q116.24-15.05 116.24-11.3L116.24-11.3Q116.24-7.6 114.89-3.9L114.89-3.9Q114.14-1.9 112.69-0.63 111.24 0.65 109.29 0.65L109.29 0.65Q105.44 0.65 105.44-3.8L105.44-3.8Q105.44-5 105.94-5L105.94-5Q106.04-5 106.51-4.78 106.99-4.55 107.44-4.55L107.44-4.55Q110.99-4.55 110.99-12.08 110.99-19.6 107.19-19.6L107.19-19.6Q106.14-19.6 105.41-19.13 104.69-18.65 104.49-18.2L104.49-18.2 104.29-17.7Q103.59-13.2 103.59-0.35L103.59-0.35Q103.59 5.45 103.81 7.98 104.04 10.5 104.04 11 104.04 11.5 103.74 11.9L103.74 11.9Q102.74 13.2 101.04 14.23 99.34 15.25 98.04 15.25L98.04 15.25Q97.54 15.25 97.54 14.6L97.54 14.6Q98.34 9.55 98.79-7.65ZM135.39-15L135.39-15 135.29-8.6Q135.29-1.95 136.74-0.6L136.74-0.6Q136.94-0.4 136.94-0.15L136.94-0.15Q136.94 0.6 133.71 0.6 130.49 0.6 130.29-1.3L130.29-1.3Q130.24-1.75 130.24-3.15L130.24-3.15 130.44-11.15Q130.44-11.5 130.04-11.5L130.04-11.5Q127.64-11.5 125.54-10.15 123.44-8.8 123.44-6.7L123.44-6.7Q123.44-5.6 124.04-4.85 124.64-4.1 125.51-4.1 126.39-4.1 126.96-4.45 127.54-4.8 127.64-4.85L127.64-4.85Q128.49-4.75 128.49-3.08 128.49-1.4 126.94-0.38 125.39 0.65 123.69 0.65 121.99 0.65 120.76 0.05 119.54-0.55 118.99-1.3 118.44-2.05 118.09-3L118.09-3Q117.74-4.15 117.74-5L117.74-5Q117.74-8.5 119.94-10.6 122.14-12.7 125.59-13.6L125.59-13.6Q130.14-14.5 130.34-15.25L130.34-15.25Q130.49-15.8 130.49-17.1L130.49-17.1Q130.49-19.75 127.79-19.75L127.79-19.75Q126.64-19.75 125.74-19.03 124.84-18.3 124.84-17.2L124.84-17.2 125.14-16Q125.04-15.15 123.34-15L123.34-15 122.79-14.95Q121.29-14.95 120.41-15.7 119.54-16.45 119.54-17.7L119.54-17.7Q119.54-18.5 120.06-19.48 120.59-20.45 121.39-21.05 122.19-21.65 123.86-22.13 125.54-22.6 127.09-22.6 128.64-22.6 129.49-22.5 130.34-22.4 131.81-22.03 133.29-21.65 134.26-20.6 135.24-19.55 135.31-18.38 135.39-17.2 135.39-15ZM154.78-5.75L154.78-5.75Q154.78-2.9 152.51-1.03 150.23 0.85 147.08 0.85L147.08 0.85Q142.48 0.85 140.33-1.93 138.18-4.7 138.18-9.45L138.18-9.45Q138.18-14.5 140.43-18.4L140.43-18.4Q141.53-20.4 143.58-21.55 145.63-22.7 148.38-22.7L148.38-22.7Q152.53-22.7 154.23-19.9L154.23-19.9Q154.93-18.75 154.93-17.2L154.93-17.2Q154.93-14.8 152.93-13.6L152.93-13.6Q152.13-13.15 151.46-13.15 150.78-13.15 150.36-13.23 149.93-13.3 149.23-13.9 148.53-14.5 148.53-15.55L148.53-15.55Q148.58-16.1 149.38-16.45L149.38-16.45Q150.13-16.9 150.13-18.05L150.13-18.05Q150.13-20 147.73-20L147.73-20Q147.13-20 146.31-19.48 145.48-18.95 144.93-18.13 144.38-17.3 143.91-15.53 143.43-13.75 143.43-12.13 143.43-10.5 143.56-9.68 143.68-8.85 144.11-7.43 144.53-6 145.71-5.1 146.88-4.2 148.63-4.2L148.63-4.2Q150.73-4.2 152.33-5.95L152.33-5.95Q152.98-6.65 153.38-7.65L153.38-7.65Q153.58-8.05 153.88-8.05L153.88-8.05Q154.33-8.05 154.56-7.23 154.78-6.4 154.78-5.75ZM162.18-12.7L162.18-12.7 162.23-11.45Q162.23-11.15 162.63-11.15L162.63-11.15Q164.23-11.3 165.43-11.98 166.63-12.65 167.23-13.5L167.23-13.5Q168.43-15.35 168.53-16.7L168.53-16.7 168.58-17.3Q168.58-20 166.43-20L166.43-20Q164.83-20 163.83-18.6L163.83-18.6Q162.18-16.4 162.18-12.7ZM173.08-6.05L173.08-6.05Q173.08-4.15 172.31-2.73 171.53-1.3 170.56-0.63 169.58 0.05 168.28 0.45L168.28 0.45Q166.63 0.95 165.13 0.95L165.13 0.95Q160.93 0.95 158.93-2.2 156.93-5.35 156.93-10.23 156.93-15.1 159.41-18.9 161.88-22.7 166.83-22.7L166.83-22.7Q171.33-22.7 172.93-19.55L172.93-19.55Q173.58-18.35 173.58-17.28 173.58-16.2 173.48-15.58 173.38-14.95 172.78-13.7 172.18-12.45 171.18-11.45 170.18-10.45 168.03-9.55 165.88-8.65 162.98-8.35L162.98-8.35Q162.58-8.35 162.58-8L162.58-8Q162.58-7.55 162.91-6.68 163.23-5.8 163.63-5.2L163.63-5.2Q164.73-3.8 166.88-3.8L166.88-3.8Q169.03-3.8 170.53-5.2L170.53-5.2Q171.33-5.95 171.83-7.05L171.83-7.05Q172.03-7.45 172.36-7.45 172.68-7.45 172.88-6.9 173.08-6.35 173.08-6.05Z" opacity="1" transform="matrix(1,0,0,1,0,0)" fill="black" class="wordmark-text-0" id="SvgjsPath2496"></path></svg></g></svg></g><g transform="matrix(1,0,0,1,0,152.82443620456797)"><svg viewBox="0 0 232.20979199999994 25.87528235801581" height="25.87528235801581" width="232.20979199999994"><g transform="matrix(1,0,0,1,0,0)"><svg width="232.20979199999994" viewBox="1.95 -38 347.71000000000004 38.75" height="25.87528235801581" data-palette-color="url(#b4d711ee-4812-4c9b-b854-703bc460a095)"><path d="M16.5 0.6L16.5 0.6Q11.78 0.6 8.54-1.64 5.3-3.88 3.63-7.93 1.95-11.98 1.95-17.45L1.95-17.45Q1.95-22.88 3.6-26.93 5.25-30.98 8.46-33.21 11.68-35.45 16.35-35.45L16.35-35.45Q21.23-35.45 24.46-33.18 27.7-30.9 29.33-26.85 30.95-22.8 30.95-17.45L30.95-17.45Q30.95-11.98 29.28-7.93 27.6-3.88 24.38-1.64 21.15 0.6 16.5 0.6ZM16.5-4.75L16.5-4.75Q19.78-4.75 22.04-7.91 24.3-11.08 24.3-17.6L24.3-17.6Q24.3-23.88 22.19-27.06 20.08-30.25 16.35-30.25L16.35-30.25Q12.73-30.25 10.69-27.05 8.65-23.85 8.65-17.55L8.65-17.55Q8.65-11.03 10.81-7.89 12.98-4.75 16.5-4.75ZM49 0.7L49 0.7Q46.3 0.7 44.59-1 42.87-2.7 42.3-4.95L42.3-4.95 42.3 0 36.8 0 36.8-38 42.8-38 42.8-24.9 42.3-20.6Q42.7-22.3 43.89-23.4 45.07-24.5 46.6-25.03 48.12-25.55 49.55-25.55L49.55-25.55Q54.2-25.55 56.57-22.26 58.95-18.98 58.95-12.55L58.95-12.55Q58.95-8.08 57.61-5.14 56.27-2.2 54.01-0.75 51.75 0.7 49 0.7ZM47.55-4.25L47.55-4.25Q48.77-4.25 49.89-5.06 51-5.88 51.7-7.7 52.4-9.53 52.4-12.55L52.4-12.55Q52.4-16.75 50.98-18.6 49.57-20.45 47.65-20.45L47.65-20.45Q45.32-20.45 44.11-18.06 42.9-15.68 42.9-12.15L42.9-12.15Q42.9-8.63 44.14-6.44 45.37-4.25 47.55-4.25ZM71.59 0.45L71.59 0.45Q68.87 0.45 67.13-0.06 65.4-0.58 64.43-1.24 63.47-1.9 63.1-2.35L63.1-2.35 64.95-7.1Q66.05-6.2 67.76-5.33 69.47-4.45 71.75-4.45L71.75-4.45Q73.52-4.45 74.23-5.18 74.95-5.9 74.95-6.75L74.95-6.75Q74.95-7.93 73.32-8.88 71.7-9.83 69.55-10.75L69.55-10.75Q68.27-11.3 66.84-12.15 65.42-13 64.41-14.4 63.4-15.8 63.4-18L63.4-18Q63.4-21.38 65.86-23.39 68.32-25.4 72.84-25.4L72.84-25.4Q75.75-25.4 77.76-24.54 79.77-23.68 80.45-23L80.45-23 78.75-18.5Q77.77-19.25 76.27-19.93 74.77-20.6 73.05-20.6L73.05-20.6Q71.15-20.6 70.4-20.1 69.65-19.6 69.65-18.5L69.65-18.5Q69.65-17.28 70.98-16.49 72.32-15.7 74.2-14.95L74.2-14.95Q77.32-13.73 79.23-11.94 81.15-10.15 81.15-7.4L81.15-7.4Q81.15-5.35 80.2-3.56 79.25-1.78 77.15-0.66 75.05 0.45 71.59 0.45ZM96.74 0.65L96.74 0.65Q92.54 0.65 89.97-1.11 87.39-2.88 86.22-5.79 85.04-8.7 85.04-12.15L85.04-12.15Q85.04-15.78 86.38-18.81 87.72-21.85 90.31-23.68 92.89-25.5 96.64-25.5L96.64-25.5Q102.24-25.5 104.47-22.26 106.69-19.03 106.69-13.1L106.69-13.1Q106.69-12.58 106.67-11.78 106.64-10.98 106.59-10.4L106.59-10.4 91.59-10.4Q91.74-7.45 93.26-5.78 94.77-4.1 97.79-4.1L97.79-4.1Q99.34-4.1 101.12-4.79 102.89-5.48 103.74-6.45L103.74-6.45 105.74-1.7Q104.74-1.03 102.58-0.19 100.42 0.65 96.74 0.65ZM91.54-14.3L91.54-14.3 100.34-14.3Q100.34-16.93 99.88-18.31 99.42-19.7 98.62-20.23 97.82-20.75 96.79-20.75L96.79-20.75Q94.24-20.75 92.97-18.86 91.69-16.98 91.54-14.3ZM118.59 0L112.34 0 112.34-24.9 117.99-24.9 118.29-20.5Q118.69-21.48 119.53-22.58 120.37-23.68 121.85-24.44 123.34-25.2 125.69-25.2L125.69-25.2Q126.42-25.2 126.97-25.1 127.52-25 127.99-24.8L127.99-24.8 126.59-18.25Q125.79-19.05 124.14-19.05L124.14-19.05Q122.22-19.05 120.99-18.26 119.77-17.48 119.18-16.5 118.59-15.53 118.59-15L118.59-15 118.59 0ZM142.24 0L137.79 0 127.69-24.9 134.69-24.9 138.99-12.45 140.09-8.35 141.09-12.45 145.24-24.9 151.84-24.9 142.24 0ZM165.34 0.65L165.34 0.65Q161.14 0.65 158.56-1.11 155.99-2.88 154.81-5.79 153.64-8.7 153.64-12.15L153.64-12.15Q153.64-15.78 154.97-18.81 156.31-21.85 158.9-23.68 161.49-25.5 165.24-25.5L165.24-25.5Q170.84-25.5 173.06-22.26 175.29-19.03 175.29-13.1L175.29-13.1Q175.29-12.58 175.26-11.78 175.24-10.98 175.19-10.4L175.19-10.4 160.19-10.4Q160.34-7.45 161.85-5.78 163.36-4.1 166.39-4.1L166.39-4.1Q167.94-4.1 169.71-4.79 171.49-5.48 172.34-6.45L172.34-6.45 174.34-1.7Q173.34-1.03 171.17-0.19 169.01 0.65 165.34 0.65ZM160.14-14.3L160.14-14.3 168.94-14.3Q168.94-16.93 168.47-18.31 168.01-19.7 167.21-20.23 166.41-20.75 165.39-20.75L165.39-20.75Q162.84-20.75 161.56-18.86 160.29-16.98 160.14-14.3ZM198.88 0.75L198.88 0.75Q194.66 0.75 193.17-1.45 191.68-3.65 191.68-8.1L191.68-8.1 191.68-19.65 188.43-19.65 188.43-24.9 191.93-24.9 192.28-30.15 197.73-32.5 197.73-24.9 203.88-24.9 203.88-19.65 197.73-19.65 197.73-8.25Q197.73-6.08 198.34-5.24 198.96-4.4 200.03-4.4L200.03-4.4Q201.13-4.4 202.36-4.98 203.58-5.55 204.28-6.15L204.28-6.15 205.48-1.1Q204.71-0.55 203.47-0.14 202.23 0.28 200.97 0.51 199.71 0.75 198.88 0.75ZM219.53 0.5L219.53 0.5Q214.03 0.5 211.03-2.95 208.03-6.4 208.03-12.5L208.03-12.5Q208.03-18.65 211.13-22.08 214.23-25.5 219.73-25.5L219.73-25.5Q225.25-25.5 228.14-21.96 231.03-18.43 231.03-12.5L231.03-12.5Q231.03-6.58 228.04-3.04 225.05 0.5 219.53 0.5ZM219.63-4.5L219.63-4.5Q224.38-4.5 224.38-12.5L224.38-12.5Q224.38-20.55 219.63-20.55L219.63-20.55Q217.28-20.55 215.98-18.69 214.68-16.82 214.68-12.5L214.68-12.5Q214.68-8.2 215.98-6.35 217.28-4.5 219.63-4.5ZM252.52 0L246.42 0 246.42-38 252.52-38 252.52 0ZM269.12 0.65L269.12 0.65Q264.92 0.65 262.34-1.11 259.77-2.88 258.59-5.79 257.42-8.7 257.42-12.15L257.42-12.15Q257.42-15.78 258.76-18.81 260.09-21.85 262.68-23.68 265.27-25.5 269.02-25.5L269.02-25.5Q274.62-25.5 276.84-22.26 279.07-19.03 279.07-13.1L279.07-13.1Q279.07-12.58 279.05-11.78 279.02-10.98 278.97-10.4L278.97-10.4 263.97-10.4Q264.12-7.45 265.63-5.78 267.14-4.1 270.17-4.1L270.17-4.1Q271.72-4.1 273.5-4.79 275.27-5.48 276.12-6.45L276.12-6.45 278.12-1.7Q277.12-1.03 274.96-0.19 272.8 0.65 269.12 0.65ZM263.92-14.3L263.92-14.3 272.72-14.3Q272.72-16.93 272.26-18.31 271.8-19.7 271-20.23 270.19-20.75 269.17-20.75L269.17-20.75Q266.62-20.75 265.34-18.86 264.07-16.98 263.92-14.3ZM289.97 0.7L289.97 0.7Q287.67 0.7 286.15-0.33 284.64-1.35 283.9-3.05 283.17-4.75 283.17-6.8L283.17-6.8Q283.17-7.95 283.75-9.33 284.34-10.7 285.84-11.95 287.34-13.2 290.07-14 292.79-14.8 297.07-14.8L297.07-14.8 297.07-15.95Q297.07-17.8 296.18-19.03 295.29-20.25 292.62-20.25L292.62-20.25Q290.67-20.25 288.81-19.59 286.94-18.93 286.07-17.95L286.07-17.95 284.07-22.75Q285.57-23.78 288.08-24.64 290.59-25.5 293.67-25.5L293.67-25.5Q297.37-25.5 299.42-24.38 301.47-23.25 302.29-21.19 303.12-19.13 303.12-16.35L303.12-16.35 303.12 0 297.77 0 297.32-3.55Q294.72 0.7 289.97 0.7ZM292.62-4.1L292.62-4.1Q293.74-4.1 295.03-5.01 296.32-5.93 297.07-7.35L297.07-7.35 297.07-10.9Q296.82-10.95 296.53-10.95 296.24-10.95 295.87-10.95L295.87-10.95Q294.49-10.95 292.98-10.64 291.47-10.33 290.42-9.55 289.37-8.78 289.37-7.4L289.37-7.4Q289.37-5.6 290.17-4.85 290.97-4.1 292.62-4.1ZM315.81 0L309.56 0 309.56-24.9 315.22-24.9 315.51-20.5Q315.92-21.48 316.75-22.58 317.59-23.68 319.08-24.44 320.56-25.2 322.92-25.2L322.92-25.2Q323.64-25.2 324.19-25.1 324.74-25 325.22-24.8L325.22-24.8 323.81-18.25Q323.01-19.05 321.37-19.05L321.37-19.05Q319.44-19.05 318.22-18.26 316.99-17.48 316.4-16.5 315.81-15.53 315.81-15L315.81-15 315.81 0ZM335.31 0L328.91 0 328.91-24.9 334.71-24.9 334.84-21.63Q335.81-23.13 337.56-24.31 339.31-25.5 342.16-25.5L342.16-25.5Q345.96-25.5 347.81-23.1 349.66-20.7 349.66-16.45L349.66-16.45 349.66 0 343.26 0 343.26-15.9Q343.26-17.98 342.39-19.26 341.51-20.55 339.71-20.55L339.71-20.55Q337.96-20.55 336.64-19.26 335.31-17.98 335.31-15.9L335.31-15.9 335.31 0Z" opacity="1" transform="matrix(1,0,0,1,0,0)" fill="black" class="slogan-text-1" id="SvgjsPath2495"></path></svg></g></svg></g></svg></g></svg></g><g transform="matrix(1,0,0,1,0,2.034993443633809)"><svg viewBox="0 0 245.6535167999999 174.62973167531615" height="174.62973167531615" width="245.6535167999999"><g><svg xmlns="http://www.w3.org/2000/svg" viewBox="22.33 30.33 55.34 39.34" x="0" y="0" height="174.62973167531615" width="245.6535167999999" class="icon-icon-0" data-fill-palette-color="accent" id="SvgjsSvg2494"><g data-name="Layer 2" fill="black"><path d="M50 30.33C31.67 30.33 22.33 50 22.33 50S31.67 69.67 50 69.67 77.67 50 77.67 50 68.33 30.33 50 30.33M50 64A14 14 0 1 1 64 50 14 14 0 0 1 50 64M57.5 50A7.5 7.5 0 1 1 50 42.5 7.5 7.5 0 0 1 57.5 50" fill="black"></path></g></svg></g></svg></g></svg></g><defs><mask></mask></defs></svg><rect width="395.52" height="105.35830098788864" fill="black" stroke="none" visibility="hidden"></rect></g></mask><mask><g id="SvgjsG2493"><svg viewBox="0 0 395.52 105.35830098788864" height="105.35830098788864" width="395.52"><g><svg viewBox="0 0 670.8471190513787 178.69971856258377" height="105.35830098788864" width="395.52"><g transform="matrix(1,0,0,1,273.3495190513789,0)"><svg viewBox="0 0 397.49759999999986 178.69971856258377" height="178.69971856258377" width="397.49759999999986"><g id="SvgjsG2492"><svg viewBox="0 0 397.49759999999986 178.69971856258377" height="178.69971856258377" width="397.49759999999986" id="SvgjsSvg2491"><g></g><g transform="matrix(1,0,0,1,0.9887999999999693,0)"><svg viewBox="0 0 395.5199999999999 117.31816131830007" height="117.31816131830007" width="395.5199999999999"><g transform="matrix(1,0,0,1,0,0)"><svg width="395.5199999999999" viewBox="0.65 -36.05 172.93 51.3" height="117.31816131830007" data-palette-color="url(#fcb089a8-a99f-4529-a14a-065c81209f6b)"></svg></g></svg></g><g transform="matrix(1,0,0,1,0,152.82443620456797)"><svg viewBox="0 0 232.20979199999994 25.87528235801581" height="25.87528235801581" width="232.20979199999994"><g transform="matrix(1,0,0,1,0,0)"><svg width="232.20979199999994" viewBox="1.95 -38 347.71000000000004 38.75" height="25.87528235801581" data-palette-color="url(#b4d711ee-4812-4c9b-b854-703bc460a095)"><path d="M16.5 0.6L16.5 0.6Q11.78 0.6 8.54-1.64 5.3-3.88 3.63-7.93 1.95-11.98 1.95-17.45L1.95-17.45Q1.95-22.88 3.6-26.93 5.25-30.98 8.46-33.21 11.68-35.45 16.35-35.45L16.35-35.45Q21.23-35.45 24.46-33.18 27.7-30.9 29.33-26.85 30.95-22.8 30.95-17.45L30.95-17.45Q30.95-11.98 29.28-7.93 27.6-3.88 24.38-1.64 21.15 0.6 16.5 0.6ZM16.5-4.75L16.5-4.75Q19.78-4.75 22.04-7.91 24.3-11.08 24.3-17.6L24.3-17.6Q24.3-23.88 22.19-27.06 20.08-30.25 16.35-30.25L16.35-30.25Q12.73-30.25 10.69-27.05 8.65-23.85 8.65-17.55L8.65-17.55Q8.65-11.03 10.81-7.89 12.98-4.75 16.5-4.75ZM49 0.7L49 0.7Q46.3 0.7 44.59-1 42.87-2.7 42.3-4.95L42.3-4.95 42.3 0 36.8 0 36.8-38 42.8-38 42.8-24.9 42.3-20.6Q42.7-22.3 43.89-23.4 45.07-24.5 46.6-25.03 48.12-25.55 49.55-25.55L49.55-25.55Q54.2-25.55 56.57-22.26 58.95-18.98 58.95-12.55L58.95-12.55Q58.95-8.08 57.61-5.14 56.27-2.2 54.01-0.75 51.75 0.7 49 0.7ZM47.55-4.25L47.55-4.25Q48.77-4.25 49.89-5.06 51-5.88 51.7-7.7 52.4-9.53 52.4-12.55L52.4-12.55Q52.4-16.75 50.98-18.6 49.57-20.45 47.65-20.45L47.65-20.45Q45.32-20.45 44.11-18.06 42.9-15.68 42.9-12.15L42.9-12.15Q42.9-8.63 44.14-6.44 45.37-4.25 47.55-4.25ZM71.59 0.45L71.59 0.45Q68.87 0.45 67.13-0.06 65.4-0.58 64.43-1.24 63.47-1.9 63.1-2.35L63.1-2.35 64.95-7.1Q66.05-6.2 67.76-5.33 69.47-4.45 71.75-4.45L71.75-4.45Q73.52-4.45 74.23-5.18 74.95-5.9 74.95-6.75L74.95-6.75Q74.95-7.93 73.32-8.88 71.7-9.83 69.55-10.75L69.55-10.75Q68.27-11.3 66.84-12.15 65.42-13 64.41-14.4 63.4-15.8 63.4-18L63.4-18Q63.4-21.38 65.86-23.39 68.32-25.4 72.84-25.4L72.84-25.4Q75.75-25.4 77.76-24.54 79.77-23.68 80.45-23L80.45-23 78.75-18.5Q77.77-19.25 76.27-19.93 74.77-20.6 73.05-20.6L73.05-20.6Q71.15-20.6 70.4-20.1 69.65-19.6 69.65-18.5L69.65-18.5Q69.65-17.28 70.98-16.49 72.32-15.7 74.2-14.95L74.2-14.95Q77.32-13.73 79.23-11.94 81.15-10.15 81.15-7.4L81.15-7.4Q81.15-5.35 80.2-3.56 79.25-1.78 77.15-0.66 75.05 0.45 71.59 0.45ZM96.74 0.65L96.74 0.65Q92.54 0.65 89.97-1.11 87.39-2.88 86.22-5.79 85.04-8.7 85.04-12.15L85.04-12.15Q85.04-15.78 86.38-18.81 87.72-21.85 90.31-23.68 92.89-25.5 96.64-25.5L96.64-25.5Q102.24-25.5 104.47-22.26 106.69-19.03 106.69-13.1L106.69-13.1Q106.69-12.58 106.67-11.78 106.64-10.98 106.59-10.4L106.59-10.4 91.59-10.4Q91.74-7.45 93.26-5.78 94.77-4.1 97.79-4.1L97.79-4.1Q99.34-4.1 101.12-4.79 102.89-5.48 103.74-6.45L103.74-6.45 105.74-1.7Q104.74-1.03 102.58-0.19 100.42 0.65 96.74 0.65ZM91.54-14.3L91.54-14.3 100.34-14.3Q100.34-16.93 99.88-18.31 99.42-19.7 98.62-20.23 97.82-20.75 96.79-20.75L96.79-20.75Q94.24-20.75 92.97-18.86 91.69-16.98 91.54-14.3ZM118.59 0L112.34 0 112.34-24.9 117.99-24.9 118.29-20.5Q118.69-21.48 119.53-22.58 120.37-23.68 121.85-24.44 123.34-25.2 125.69-25.2L125.69-25.2Q126.42-25.2 126.97-25.1 127.52-25 127.99-24.8L127.99-24.8 126.59-18.25Q125.79-19.05 124.14-19.05L124.14-19.05Q122.22-19.05 120.99-18.26 119.77-17.48 119.18-16.5 118.59-15.53 118.59-15L118.59-15 118.59 0ZM142.24 0L137.79 0 127.69-24.9 134.69-24.9 138.99-12.45 140.09-8.35 141.09-12.45 145.24-24.9 151.84-24.9 142.24 0ZM165.34 0.65L165.34 0.65Q161.14 0.65 158.56-1.11 155.99-2.88 154.81-5.79 153.64-8.7 153.64-12.15L153.64-12.15Q153.64-15.78 154.97-18.81 156.31-21.85 158.9-23.68 161.49-25.5 165.24-25.5L165.24-25.5Q170.84-25.5 173.06-22.26 175.29-19.03 175.29-13.1L175.29-13.1Q175.29-12.58 175.26-11.78 175.24-10.98 175.19-10.4L175.19-10.4 160.19-10.4Q160.34-7.45 161.85-5.78 163.36-4.1 166.39-4.1L166.39-4.1Q167.94-4.1 169.71-4.79 171.49-5.48 172.34-6.45L172.34-6.45 174.34-1.7Q173.34-1.03 171.17-0.19 169.01 0.65 165.34 0.65ZM160.14-14.3L160.14-14.3 168.94-14.3Q168.94-16.93 168.47-18.31 168.01-19.7 167.21-20.23 166.41-20.75 165.39-20.75L165.39-20.75Q162.84-20.75 161.56-18.86 160.29-16.98 160.14-14.3ZM198.88 0.75L198.88 0.75Q194.66 0.75 193.17-1.45 191.68-3.65 191.68-8.1L191.68-8.1 191.68-19.65 188.43-19.65 188.43-24.9 191.93-24.9 192.28-30.15 197.73-32.5 197.73-24.9 203.88-24.9 203.88-19.65 197.73-19.65 197.73-8.25Q197.73-6.08 198.34-5.24 198.96-4.4 200.03-4.4L200.03-4.4Q201.13-4.4 202.36-4.98 203.58-5.55 204.28-6.15L204.28-6.15 205.48-1.1Q204.71-0.55 203.47-0.14 202.23 0.28 200.97 0.51 199.71 0.75 198.88 0.75ZM219.53 0.5L219.53 0.5Q214.03 0.5 211.03-2.95 208.03-6.4 208.03-12.5L208.03-12.5Q208.03-18.65 211.13-22.08 214.23-25.5 219.73-25.5L219.73-25.5Q225.25-25.5 228.14-21.96 231.03-18.43 231.03-12.5L231.03-12.5Q231.03-6.58 228.04-3.04 225.05 0.5 219.53 0.5ZM219.63-4.5L219.63-4.5Q224.38-4.5 224.38-12.5L224.38-12.5Q224.38-20.55 219.63-20.55L219.63-20.55Q217.28-20.55 215.98-18.69 214.68-16.82 214.68-12.5L214.68-12.5Q214.68-8.2 215.98-6.35 217.28-4.5 219.63-4.5ZM252.52 0L246.42 0 246.42-38 252.52-38 252.52 0ZM269.12 0.65L269.12 0.65Q264.92 0.65 262.34-1.11 259.77-2.88 258.59-5.79 257.42-8.7 257.42-12.15L257.42-12.15Q257.42-15.78 258.76-18.81 260.09-21.85 262.68-23.68 265.27-25.5 269.02-25.5L269.02-25.5Q274.62-25.5 276.84-22.26 279.07-19.03 279.07-13.1L279.07-13.1Q279.07-12.58 279.05-11.78 279.02-10.98 278.97-10.4L278.97-10.4 263.97-10.4Q264.12-7.45 265.63-5.78 267.14-4.1 270.17-4.1L270.17-4.1Q271.72-4.1 273.5-4.79 275.27-5.48 276.12-6.45L276.12-6.45 278.12-1.7Q277.12-1.03 274.96-0.19 272.8 0.65 269.12 0.65ZM263.92-14.3L263.92-14.3 272.72-14.3Q272.72-16.93 272.26-18.31 271.8-19.7 271-20.23 270.19-20.75 269.17-20.75L269.17-20.75Q266.62-20.75 265.34-18.86 264.07-16.98 263.92-14.3ZM289.97 0.7L289.97 0.7Q287.67 0.7 286.15-0.33 284.64-1.35 283.9-3.05 283.17-4.75 283.17-6.8L283.17-6.8Q283.17-7.95 283.75-9.33 284.34-10.7 285.84-11.95 287.34-13.2 290.07-14 292.79-14.8 297.07-14.8L297.07-14.8 297.07-15.95Q297.07-17.8 296.18-19.03 295.29-20.25 292.62-20.25L292.62-20.25Q290.67-20.25 288.81-19.59 286.94-18.93 286.07-17.95L286.07-17.95 284.07-22.75Q285.57-23.78 288.08-24.64 290.59-25.5 293.67-25.5L293.67-25.5Q297.37-25.5 299.42-24.38 301.47-23.25 302.29-21.19 303.12-19.13 303.12-16.35L303.12-16.35 303.12 0 297.77 0 297.32-3.55Q294.72 0.7 289.97 0.7ZM292.62-4.1L292.62-4.1Q293.74-4.1 295.03-5.01 296.32-5.93 297.07-7.35L297.07-7.35 297.07-10.9Q296.82-10.95 296.53-10.95 296.24-10.95 295.87-10.95L295.87-10.95Q294.49-10.95 292.98-10.64 291.47-10.33 290.42-9.55 289.37-8.78 289.37-7.4L289.37-7.4Q289.37-5.6 290.17-4.85 290.97-4.1 292.62-4.1ZM315.81 0L309.56 0 309.56-24.9 315.22-24.9 315.51-20.5Q315.92-21.48 316.75-22.58 317.59-23.68 319.08-24.44 320.56-25.2 322.92-25.2L322.92-25.2Q323.64-25.2 324.19-25.1 324.74-25 325.22-24.8L325.22-24.8 323.81-18.25Q323.01-19.05 321.37-19.05L321.37-19.05Q319.44-19.05 318.22-18.26 316.99-17.48 316.4-16.5 315.81-15.53 315.81-15L315.81-15 315.81 0ZM335.31 0L328.91 0 328.91-24.9 334.71-24.9 334.84-21.63Q335.81-23.13 337.56-24.31 339.31-25.5 342.16-25.5L342.16-25.5Q345.96-25.5 347.81-23.1 349.66-20.7 349.66-16.45L349.66-16.45 349.66 0 343.26 0 343.26-15.9Q343.26-17.98 342.39-19.26 341.51-20.55 339.71-20.55L339.71-20.55Q337.96-20.55 336.64-19.26 335.31-17.98 335.31-15.9L335.31-15.9 335.31 0Z" opacity="1" transform="matrix(1,0,0,1,0,0)" fill="black" class="slogan-text-1" id="SvgjsPath2490"></path></svg></g></svg></g></svg></g></svg></g><g transform="matrix(1,0,0,1,0,2.034993443633809)"><svg viewBox="0 0 245.6535167999999 174.62973167531615" height="174.62973167531615" width="245.6535167999999"><g><svg xmlns="http://www.w3.org/2000/svg" viewBox="22.33 30.33 55.34 39.34" x="0" y="0" height="174.62973167531615" width="245.6535167999999" class="icon-icon-0" data-fill-palette-color="accent" id="SvgjsSvg2489"><g data-name="Layer 2" fill="black"><path d="M50 30.33C31.67 30.33 22.33 50 22.33 50S31.67 69.67 50 69.67 77.67 50 77.67 50 68.33 30.33 50 30.33M50 64A14 14 0 1 1 64 50 14 14 0 0 1 50 64M57.5 50A7.5 7.5 0 1 1 50 42.5 7.5 7.5 0 0 1 57.5 50" fill="black"></path></g></svg></g></svg></g></svg></g><defs><mask></mask></defs><mask><g id="SvgjsG2488"><svg viewBox="0 0 395.52 105.35830098788864" height="105.35830098788864" width="395.52"><g><svg viewBox="0 0 670.8471190513787 178.69971856258377" height="105.35830098788864" width="395.52"><g transform="matrix(1,0,0,1,273.3495190513789,0)"><svg viewBox="0 0 397.49759999999986 178.69971856258377" height="178.69971856258377" width="397.49759999999986"><g id="SvgjsG2487"><svg viewBox="0 0 397.49759999999986 178.69971856258377" height="178.69971856258377" width="397.49759999999986" id="SvgjsSvg2486"><g><rect width="397.49759999999986" height="10.579872860026782" x="0" y="129.78136233142064" fill="black" opacity="1" stroke-width="0" stroke="transparent" fill-opacity="1" class="rect-yte-0" rx="1%" id="SvgjsRect2485" data-palette-color="url(#fcb089a8-a99f-4529-a14a-065c81209f6b)"></rect></g><g transform="matrix(1,0,0,1,0.9887999999999693,0)"><svg viewBox="0 0 395.5199999999999 117.31816131830007" height="117.31816131830007" width="395.5199999999999"><g transform="matrix(1,0,0,1,0,0)"><svg width="395.5199999999999" viewBox="0.65 -36.05 172.93 51.3" height="117.31816131830007" data-palette-color="url(#fcb089a8-a99f-4529-a14a-065c81209f6b)"><path d="M17.4-27.7L17.4-27.7 17.6-29.25Q17.6-31.55 15.8-32.2L15.8-32.2Q14.4-32.65 13.65-32.65L13.65-32.65 13.6-32.65Q12.1-32.65 11-32.18 9.9-31.7 9.4-31L9.4-31Q8.35-29.55 8.2-27.95L8.2-27.95Q8.2-26.05 9.9-24.68 11.6-23.3 14.03-22.28 16.45-21.25 18.88-20.05 21.3-18.85 23-16.6 24.7-14.35 24.7-11.2L24.7-11.2Q24.7-5.05 20.83-2 16.95 1.05 12.03 1.05 7.1 1.05 3.88-1.18 0.65-3.4 0.65-7.15L0.65-7.15 0.65-7.2Q0.65-9.05 1.23-10.43 1.8-11.8 2.6-12.45L2.6-12.45Q4.25-13.8 5.6-13.9L5.6-13.9 6.2-13.95Q7.6-13.95 8.75-13.28 9.9-12.6 9.9-11.4L9.9-11.4Q9.9-10.8 9.25-10.4 8.6-10 8.13-9.2 7.65-8.4 7.6-7.85L7.6-7.85 7.5-7.3Q7.5-4.25 10.3-3.25L10.3-3.25Q11.3-2.9 11.9-2.9L11.9-2.9Q14.65-2.9 16.32-4.55 18-6.2 18-8.75L18-8.75Q18-11.8 15.4-13.7L15.4-13.7Q13.45-15.1 11.18-16.05 8.9-17 8.1-17.4 7.3-17.8 6.4-18.35 5.5-18.9 4.4-19.9L4.4-19.9Q2-22 2-25.58 2-29.15 3.95-31.6L3.95-31.6Q7.45-36.05 14.45-36.05L14.45-36.05Q18.15-36.05 20.7-34.63 23.25-33.2 23.25-30.7L23.25-30.7Q23.25-28.9 22.23-27.7 21.2-26.5 19.6-26.5L19.6-26.5Q18.85-26.5 18.13-26.8 17.4-27.1 17.4-27.7ZM31.75-12.7L31.75-12.7 31.8-11.45Q31.8-11.15 32.2-11.15L32.2-11.15Q33.8-11.3 35-11.98 36.2-12.65 36.8-13.5L36.8-13.5Q38-15.35 38.1-16.7L38.1-16.7 38.15-17.3Q38.15-20 36-20L36-20Q34.4-20 33.4-18.6L33.4-18.6Q31.75-16.4 31.75-12.7ZM42.65-6.05L42.65-6.05Q42.65-4.15 41.87-2.73 41.1-1.3 40.12-0.63 39.15 0.05 37.85 0.45L37.85 0.45Q36.2 0.95 34.7 0.95L34.7 0.95Q30.5 0.95 28.5-2.2 26.5-5.35 26.5-10.23 26.5-15.1 28.97-18.9 31.45-22.7 36.4-22.7L36.4-22.7Q40.9-22.7 42.5-19.55L42.5-19.55Q43.15-18.35 43.15-17.28 43.15-16.2 43.05-15.58 42.95-14.95 42.35-13.7 41.75-12.45 40.75-11.45 39.75-10.45 37.6-9.55 35.45-8.65 32.55-8.35L32.55-8.35Q32.15-8.35 32.15-8L32.15-8Q32.15-7.55 32.47-6.68 32.8-5.8 33.2-5.2L33.2-5.2Q34.3-3.8 36.45-3.8L36.45-3.8Q38.6-3.8 40.1-5.2L40.1-5.2Q40.9-5.95 41.4-7.05L41.4-7.05Q41.6-7.45 41.92-7.45 42.25-7.45 42.45-6.9 42.65-6.35 42.65-6.05ZM50.15-12.7L50.15-12.7 50.2-11.45Q50.2-11.15 50.6-11.15L50.6-11.15Q52.2-11.3 53.4-11.98 54.6-12.65 55.2-13.5L55.2-13.5Q56.4-15.35 56.5-16.7L56.5-16.7 56.55-17.3Q56.55-20 54.4-20L54.4-20Q52.8-20 51.8-18.6L51.8-18.6Q50.15-16.4 50.15-12.7ZM61.05-6.05L61.05-6.05Q61.05-4.15 60.27-2.73 59.5-1.3 58.52-0.63 57.55 0.05 56.25 0.45L56.25 0.45Q54.6 0.95 53.1 0.95L53.1 0.95Q48.9 0.95 46.9-2.2 44.9-5.35 44.9-10.23 44.9-15.1 47.37-18.9 49.85-22.7 54.8-22.7L54.8-22.7Q59.3-22.7 60.9-19.55L60.9-19.55Q61.55-18.35 61.55-17.28 61.55-16.2 61.45-15.58 61.34-14.95 60.75-13.7 60.15-12.45 59.15-11.45 58.15-10.45 56-9.55 53.85-8.65 50.95-8.35L50.95-8.35Q50.55-8.35 50.55-8L50.55-8Q50.55-7.55 50.87-6.68 51.2-5.8 51.6-5.2L51.6-5.2Q52.7-3.8 54.85-3.8L54.85-3.8Q57-3.8 58.5-5.2L58.5-5.2Q59.3-5.95 59.8-7.05L59.8-7.05Q60-7.45 60.32-7.45 60.65-7.45 60.84-6.9 61.05-6.35 61.05-6.05ZM88.69-27.7L88.69-27.7 88.89-29.25Q88.89-31.55 87.09-32.2L87.09-32.2Q85.69-32.65 84.94-32.65L84.94-32.65 84.89-32.65Q83.39-32.65 82.29-32.18 81.19-31.7 80.69-31L80.69-31Q79.64-29.55 79.49-27.95L79.49-27.95Q79.49-26.05 81.19-24.68 82.89-23.3 85.32-22.28 87.74-21.25 90.17-20.05 92.59-18.85 94.29-16.6 95.99-14.35 95.99-11.2L95.99-11.2Q95.99-5.05 92.12-2 88.24 1.05 83.32 1.05 78.39 1.05 75.17-1.18 71.94-3.4 71.94-7.15L71.94-7.15 71.94-7.2Q71.94-9.05 72.52-10.43 73.09-11.8 73.89-12.45L73.89-12.45Q75.54-13.8 76.89-13.9L76.89-13.9 77.49-13.95Q78.89-13.95 80.04-13.28 81.19-12.6 81.19-11.4L81.19-11.4Q81.19-10.8 80.54-10.4 79.89-10 79.42-9.2 78.94-8.4 78.89-7.85L78.89-7.85 78.79-7.3Q78.79-4.25 81.59-3.25L81.59-3.25Q82.59-2.9 83.19-2.9L83.19-2.9Q85.94-2.9 87.62-4.55 89.29-6.2 89.29-8.75L89.29-8.75Q89.29-11.8 86.69-13.7L86.69-13.7Q84.74-15.1 82.47-16.05 80.19-17 79.39-17.4 78.59-17.8 77.69-18.35 76.79-18.9 75.69-19.9L75.69-19.9Q73.29-22 73.29-25.58 73.29-29.15 75.24-31.6L75.24-31.6Q78.74-36.05 85.74-36.05L85.74-36.05Q89.44-36.05 91.99-34.63 94.54-33.2 94.54-30.7L94.54-30.7Q94.54-28.9 93.52-27.7 92.49-26.5 90.89-26.5L90.89-26.5Q90.14-26.5 89.42-26.8 88.69-27.1 88.69-27.7ZM98.79-7.65L98.79-7.65Q98.89-12.7 98.89-15.95 98.89-19.2 98.44-22.15L98.44-22.15Q98.44-22.65 99.44-22.65 100.44-22.65 101.16-22.4 101.89-22.15 102.19-21.85L102.19-21.85Q102.99-21.05 103.11-21.05 103.24-21.05 103.89-21.5L103.89-21.5Q105.84-22.75 108.21-22.75 110.59-22.75 112.36-21.55 114.14-20.35 114.89-18.4L114.89-18.4Q116.24-15.05 116.24-11.3L116.24-11.3Q116.24-7.6 114.89-3.9L114.89-3.9Q114.14-1.9 112.69-0.63 111.24 0.65 109.29 0.65L109.29 0.65Q105.44 0.65 105.44-3.8L105.44-3.8Q105.44-5 105.94-5L105.94-5Q106.04-5 106.51-4.78 106.99-4.55 107.44-4.55L107.44-4.55Q110.99-4.55 110.99-12.08 110.99-19.6 107.19-19.6L107.19-19.6Q106.14-19.6 105.41-19.13 104.69-18.65 104.49-18.2L104.49-18.2 104.29-17.7Q103.59-13.2 103.59-0.35L103.59-0.35Q103.59 5.45 103.81 7.98 104.04 10.5 104.04 11 104.04 11.5 103.74 11.9L103.74 11.9Q102.74 13.2 101.04 14.23 99.34 15.25 98.04 15.25L98.04 15.25Q97.54 15.25 97.54 14.6L97.54 14.6Q98.34 9.55 98.79-7.65ZM135.39-15L135.39-15 135.29-8.6Q135.29-1.95 136.74-0.6L136.74-0.6Q136.94-0.4 136.94-0.15L136.94-0.15Q136.94 0.6 133.71 0.6 130.49 0.6 130.29-1.3L130.29-1.3Q130.24-1.75 130.24-3.15L130.24-3.15 130.44-11.15Q130.44-11.5 130.04-11.5L130.04-11.5Q127.64-11.5 125.54-10.15 123.44-8.8 123.44-6.7L123.44-6.7Q123.44-5.6 124.04-4.85 124.64-4.1 125.51-4.1 126.39-4.1 126.96-4.45 127.54-4.8 127.64-4.85L127.64-4.85Q128.49-4.75 128.49-3.08 128.49-1.4 126.94-0.38 125.39 0.65 123.69 0.65 121.99 0.65 120.76 0.05 119.54-0.55 118.99-1.3 118.44-2.05 118.09-3L118.09-3Q117.74-4.15 117.74-5L117.74-5Q117.74-8.5 119.94-10.6 122.14-12.7 125.59-13.6L125.59-13.6Q130.14-14.5 130.34-15.25L130.34-15.25Q130.49-15.8 130.49-17.1L130.49-17.1Q130.49-19.75 127.79-19.75L127.79-19.75Q126.64-19.75 125.74-19.03 124.84-18.3 124.84-17.2L124.84-17.2 125.14-16Q125.04-15.15 123.34-15L123.34-15 122.79-14.95Q121.29-14.95 120.41-15.7 119.54-16.45 119.54-17.7L119.54-17.7Q119.54-18.5 120.06-19.48 120.59-20.45 121.39-21.05 122.19-21.65 123.86-22.13 125.54-22.6 127.09-22.6 128.64-22.6 129.49-22.5 130.34-22.4 131.81-22.03 133.29-21.65 134.26-20.6 135.24-19.55 135.31-18.38 135.39-17.2 135.39-15ZM154.78-5.75L154.78-5.75Q154.78-2.9 152.51-1.03 150.23 0.85 147.08 0.85L147.08 0.85Q142.48 0.85 140.33-1.93 138.18-4.7 138.18-9.45L138.18-9.45Q138.18-14.5 140.43-18.4L140.43-18.4Q141.53-20.4 143.58-21.55 145.63-22.7 148.38-22.7L148.38-22.7Q152.53-22.7 154.23-19.9L154.23-19.9Q154.93-18.75 154.93-17.2L154.93-17.2Q154.93-14.8 152.93-13.6L152.93-13.6Q152.13-13.15 151.46-13.15 150.78-13.15 150.36-13.23 149.93-13.3 149.23-13.9 148.53-14.5 148.53-15.55L148.53-15.55Q148.58-16.1 149.38-16.45L149.38-16.45Q150.13-16.9 150.13-18.05L150.13-18.05Q150.13-20 147.73-20L147.73-20Q147.13-20 146.31-19.48 145.48-18.95 144.93-18.13 144.38-17.3 143.91-15.53 143.43-13.75 143.43-12.13 143.43-10.5 143.56-9.68 143.68-8.85 144.11-7.43 144.53-6 145.71-5.1 146.88-4.2 148.63-4.2L148.63-4.2Q150.73-4.2 152.33-5.95L152.33-5.95Q152.98-6.65 153.38-7.65L153.38-7.65Q153.58-8.05 153.88-8.05L153.88-8.05Q154.33-8.05 154.56-7.23 154.78-6.4 154.78-5.75ZM162.18-12.7L162.18-12.7 162.23-11.45Q162.23-11.15 162.63-11.15L162.63-11.15Q164.23-11.3 165.43-11.98 166.63-12.65 167.23-13.5L167.23-13.5Q168.43-15.35 168.53-16.7L168.53-16.7 168.58-17.3Q168.58-20 166.43-20L166.43-20Q164.83-20 163.83-18.6L163.83-18.6Q162.18-16.4 162.18-12.7ZM173.08-6.05L173.08-6.05Q173.08-4.15 172.31-2.73 171.53-1.3 170.56-0.63 169.58 0.05 168.28 0.45L168.28 0.45Q166.63 0.95 165.13 0.95L165.13 0.95Q160.93 0.95 158.93-2.2 156.93-5.35 156.93-10.23 156.93-15.1 159.41-18.9 161.88-22.7 166.83-22.7L166.83-22.7Q171.33-22.7 172.93-19.55L172.93-19.55Q173.58-18.35 173.58-17.28 173.58-16.2 173.48-15.58 173.38-14.95 172.78-13.7 172.18-12.45 171.18-11.45 170.18-10.45 168.03-9.55 165.88-8.65 162.98-8.35L162.98-8.35Q162.58-8.35 162.58-8L162.58-8Q162.58-7.55 162.91-6.68 163.23-5.8 163.63-5.2L163.63-5.2Q164.73-3.8 166.88-3.8L166.88-3.8Q169.03-3.8 170.53-5.2L170.53-5.2Q171.33-5.95 171.83-7.05L171.83-7.05Q172.03-7.45 172.36-7.45 172.68-7.45 172.88-6.9 173.08-6.35 173.08-6.05Z" opacity="1" transform="matrix(1,0,0,1,0,0)" fill="black" class="wordmark-text-0" id="SvgjsPath2484"></path></svg></g></svg></g><g transform="matrix(1,0,0,1,0,152.82443620456797)"><svg viewBox="0 0 232.20979199999994 25.87528235801581" height="25.87528235801581" width="232.20979199999994"><g transform="matrix(1,0,0,1,0,0)"><svg width="232.20979199999994" viewBox="1.95 -38 347.71000000000004 38.75" height="25.87528235801581" data-palette-color="url(#b4d711ee-4812-4c9b-b854-703bc460a095)"><path d="M16.5 0.6L16.5 0.6Q11.78 0.6 8.54-1.64 5.3-3.88 3.63-7.93 1.95-11.98 1.95-17.45L1.95-17.45Q1.95-22.88 3.6-26.93 5.25-30.98 8.46-33.21 11.68-35.45 16.35-35.45L16.35-35.45Q21.23-35.45 24.46-33.18 27.7-30.9 29.33-26.85 30.95-22.8 30.95-17.45L30.95-17.45Q30.95-11.98 29.28-7.93 27.6-3.88 24.38-1.64 21.15 0.6 16.5 0.6ZM16.5-4.75L16.5-4.75Q19.78-4.75 22.04-7.91 24.3-11.08 24.3-17.6L24.3-17.6Q24.3-23.88 22.19-27.06 20.08-30.25 16.35-30.25L16.35-30.25Q12.73-30.25 10.69-27.05 8.65-23.85 8.65-17.55L8.65-17.55Q8.65-11.03 10.81-7.89 12.98-4.75 16.5-4.75ZM49 0.7L49 0.7Q46.3 0.7 44.59-1 42.87-2.7 42.3-4.95L42.3-4.95 42.3 0 36.8 0 36.8-38 42.8-38 42.8-24.9 42.3-20.6Q42.7-22.3 43.89-23.4 45.07-24.5 46.6-25.03 48.12-25.55 49.55-25.55L49.55-25.55Q54.2-25.55 56.57-22.26 58.95-18.98 58.95-12.55L58.95-12.55Q58.95-8.08 57.61-5.14 56.27-2.2 54.01-0.75 51.75 0.7 49 0.7ZM47.55-4.25L47.55-4.25Q48.77-4.25 49.89-5.06 51-5.88 51.7-7.7 52.4-9.53 52.4-12.55L52.4-12.55Q52.4-16.75 50.98-18.6 49.57-20.45 47.65-20.45L47.65-20.45Q45.32-20.45 44.11-18.06 42.9-15.68 42.9-12.15L42.9-12.15Q42.9-8.63 44.14-6.44 45.37-4.25 47.55-4.25ZM71.59 0.45L71.59 0.45Q68.87 0.45 67.13-0.06 65.4-0.58 64.43-1.24 63.47-1.9 63.1-2.35L63.1-2.35 64.95-7.1Q66.05-6.2 67.76-5.33 69.47-4.45 71.75-4.45L71.75-4.45Q73.52-4.45 74.23-5.18 74.95-5.9 74.95-6.75L74.95-6.75Q74.95-7.93 73.32-8.88 71.7-9.83 69.55-10.75L69.55-10.75Q68.27-11.3 66.84-12.15 65.42-13 64.41-14.4 63.4-15.8 63.4-18L63.4-18Q63.4-21.38 65.86-23.39 68.32-25.4 72.84-25.4L72.84-25.4Q75.75-25.4 77.76-24.54 79.77-23.68 80.45-23L80.45-23 78.75-18.5Q77.77-19.25 76.27-19.93 74.77-20.6 73.05-20.6L73.05-20.6Q71.15-20.6 70.4-20.1 69.65-19.6 69.65-18.5L69.65-18.5Q69.65-17.28 70.98-16.49 72.32-15.7 74.2-14.95L74.2-14.95Q77.32-13.73 79.23-11.94 81.15-10.15 81.15-7.4L81.15-7.4Q81.15-5.35 80.2-3.56 79.25-1.78 77.15-0.66 75.05 0.45 71.59 0.45ZM96.74 0.65L96.74 0.65Q92.54 0.65 89.97-1.11 87.39-2.88 86.22-5.79 85.04-8.7 85.04-12.15L85.04-12.15Q85.04-15.78 86.38-18.81 87.72-21.85 90.31-23.68 92.89-25.5 96.64-25.5L96.64-25.5Q102.24-25.5 104.47-22.26 106.69-19.03 106.69-13.1L106.69-13.1Q106.69-12.58 106.67-11.78 106.64-10.98 106.59-10.4L106.59-10.4 91.59-10.4Q91.74-7.45 93.26-5.78 94.77-4.1 97.79-4.1L97.79-4.1Q99.34-4.1 101.12-4.79 102.89-5.48 103.74-6.45L103.74-6.45 105.74-1.7Q104.74-1.03 102.58-0.19 100.42 0.65 96.74 0.65ZM91.54-14.3L91.54-14.3 100.34-14.3Q100.34-16.93 99.88-18.31 99.42-19.7 98.62-20.23 97.82-20.75 96.79-20.75L96.79-20.75Q94.24-20.75 92.97-18.86 91.69-16.98 91.54-14.3ZM118.59 0L112.34 0 112.34-24.9 117.99-24.9 118.29-20.5Q118.69-21.48 119.53-22.58 120.37-23.68 121.85-24.44 123.34-25.2 125.69-25.2L125.69-25.2Q126.42-25.2 126.97-25.1 127.52-25 127.99-24.8L127.99-24.8 126.59-18.25Q125.79-19.05 124.14-19.05L124.14-19.05Q122.22-19.05 120.99-18.26 119.77-17.48 119.18-16.5 118.59-15.53 118.59-15L118.59-15 118.59 0ZM142.24 0L137.79 0 127.69-24.9 134.69-24.9 138.99-12.45 140.09-8.35 141.09-12.45 145.24-24.9 151.84-24.9 142.24 0ZM165.34 0.65L165.34 0.65Q161.14 0.65 158.56-1.11 155.99-2.88 154.81-5.79 153.64-8.7 153.64-12.15L153.64-12.15Q153.64-15.78 154.97-18.81 156.31-21.85 158.9-23.68 161.49-25.5 165.24-25.5L165.24-25.5Q170.84-25.5 173.06-22.26 175.29-19.03 175.29-13.1L175.29-13.1Q175.29-12.58 175.26-11.78 175.24-10.98 175.19-10.4L175.19-10.4 160.19-10.4Q160.34-7.45 161.85-5.78 163.36-4.1 166.39-4.1L166.39-4.1Q167.94-4.1 169.71-4.79 171.49-5.48 172.34-6.45L172.34-6.45 174.34-1.7Q173.34-1.03 171.17-0.19 169.01 0.65 165.34 0.65ZM160.14-14.3L160.14-14.3 168.94-14.3Q168.94-16.93 168.47-18.31 168.01-19.7 167.21-20.23 166.41-20.75 165.39-20.75L165.39-20.75Q162.84-20.75 161.56-18.86 160.29-16.98 160.14-14.3ZM198.88 0.75L198.88 0.75Q194.66 0.75 193.17-1.45 191.68-3.65 191.68-8.1L191.68-8.1 191.68-19.65 188.43-19.65 188.43-24.9 191.93-24.9 192.28-30.15 197.73-32.5 197.73-24.9 203.88-24.9 203.88-19.65 197.73-19.65 197.73-8.25Q197.73-6.08 198.34-5.24 198.96-4.4 200.03-4.4L200.03-4.4Q201.13-4.4 202.36-4.98 203.58-5.55 204.28-6.15L204.28-6.15 205.48-1.1Q204.71-0.55 203.47-0.14 202.23 0.28 200.97 0.51 199.71 0.75 198.88 0.75ZM219.53 0.5L219.53 0.5Q214.03 0.5 211.03-2.95 208.03-6.4 208.03-12.5L208.03-12.5Q208.03-18.65 211.13-22.08 214.23-25.5 219.73-25.5L219.73-25.5Q225.25-25.5 228.14-21.96 231.03-18.43 231.03-12.5L231.03-12.5Q231.03-6.58 228.04-3.04 225.05 0.5 219.53 0.5ZM219.63-4.5L219.63-4.5Q224.38-4.5 224.38-12.5L224.38-12.5Q224.38-20.55 219.63-20.55L219.63-20.55Q217.28-20.55 215.98-18.69 214.68-16.82 214.68-12.5L214.68-12.5Q214.68-8.2 215.98-6.35 217.28-4.5 219.63-4.5ZM252.52 0L246.42 0 246.42-38 252.52-38 252.52 0ZM269.12 0.65L269.12 0.65Q264.92 0.65 262.34-1.11 259.77-2.88 258.59-5.79 257.42-8.7 257.42-12.15L257.42-12.15Q257.42-15.78 258.76-18.81 260.09-21.85 262.68-23.68 265.27-25.5 269.02-25.5L269.02-25.5Q274.62-25.5 276.84-22.26 279.07-19.03 279.07-13.1L279.07-13.1Q279.07-12.58 279.05-11.78 279.02-10.98 278.97-10.4L278.97-10.4 263.97-10.4Q264.12-7.45 265.63-5.78 267.14-4.1 270.17-4.1L270.17-4.1Q271.72-4.1 273.5-4.79 275.27-5.48 276.12-6.45L276.12-6.45 278.12-1.7Q277.12-1.03 274.96-0.19 272.8 0.65 269.12 0.65ZM263.92-14.3L263.92-14.3 272.72-14.3Q272.72-16.93 272.26-18.31 271.8-19.7 271-20.23 270.19-20.75 269.17-20.75L269.17-20.75Q266.62-20.75 265.34-18.86 264.07-16.98 263.92-14.3ZM289.97 0.7L289.97 0.7Q287.67 0.7 286.15-0.33 284.64-1.35 283.9-3.05 283.17-4.75 283.17-6.8L283.17-6.8Q283.17-7.95 283.75-9.33 284.34-10.7 285.84-11.95 287.34-13.2 290.07-14 292.79-14.8 297.07-14.8L297.07-14.8 297.07-15.95Q297.07-17.8 296.18-19.03 295.29-20.25 292.62-20.25L292.62-20.25Q290.67-20.25 288.81-19.59 286.94-18.93 286.07-17.95L286.07-17.95 284.07-22.75Q285.57-23.78 288.08-24.64 290.59-25.5 293.67-25.5L293.67-25.5Q297.37-25.5 299.42-24.38 301.47-23.25 302.29-21.19 303.12-19.13 303.12-16.35L303.12-16.35 303.12 0 297.77 0 297.32-3.55Q294.72 0.7 289.97 0.7ZM292.62-4.1L292.62-4.1Q293.74-4.1 295.03-5.01 296.32-5.93 297.07-7.35L297.07-7.35 297.07-10.9Q296.82-10.95 296.53-10.95 296.24-10.95 295.87-10.95L295.87-10.95Q294.49-10.95 292.98-10.64 291.47-10.33 290.42-9.55 289.37-8.78 289.37-7.4L289.37-7.4Q289.37-5.6 290.17-4.85 290.97-4.1 292.62-4.1ZM315.81 0L309.56 0 309.56-24.9 315.22-24.9 315.51-20.5Q315.92-21.48 316.75-22.58 317.59-23.68 319.08-24.44 320.56-25.2 322.92-25.2L322.92-25.2Q323.64-25.2 324.19-25.1 324.74-25 325.22-24.8L325.22-24.8 323.81-18.25Q323.01-19.05 321.37-19.05L321.37-19.05Q319.44-19.05 318.22-18.26 316.99-17.48 316.4-16.5 315.81-15.53 315.81-15L315.81-15 315.81 0ZM335.31 0L328.91 0 328.91-24.9 334.71-24.9 334.84-21.63Q335.81-23.13 337.56-24.31 339.31-25.5 342.16-25.5L342.16-25.5Q345.96-25.5 347.81-23.1 349.66-20.7 349.66-16.45L349.66-16.45 349.66 0 343.26 0 343.26-15.9Q343.26-17.98 342.39-19.26 341.51-20.55 339.71-20.55L339.71-20.55Q337.96-20.55 336.64-19.26 335.31-17.98 335.31-15.9L335.31-15.9 335.31 0Z" opacity="1" transform="matrix(1,0,0,1,0,0)" fill="black" class="slogan-text-1" id="SvgjsPath2483"></path></svg></g></svg></g></svg></g></svg></g><g transform="matrix(1,0,0,1,0,2.034993443633809)"><svg viewBox="0 0 245.6535167999999 174.62973167531615" height="174.62973167531615" width="245.6535167999999"><g><svg xmlns="http://www.w3.org/2000/svg" viewBox="22.33 30.33 55.34 39.34" x="0" y="0" height="174.62973167531615" width="245.6535167999999" class="icon-icon-0" data-fill-palette-color="accent" id="SvgjsSvg2482"><g data-name="Layer 2" fill="black"><path d="M50 30.33C31.67 30.33 22.33 50 22.33 50S31.67 69.67 50 69.67 77.67 50 77.67 50 68.33 30.33 50 30.33M50 64A14 14 0 1 1 64 50 14 14 0 0 1 50 64M57.5 50A7.5 7.5 0 1 1 50 42.5 7.5 7.5 0 0 1 57.5 50" fill="black"></path></g></svg></g></svg></g></svg></g><defs><mask></mask></defs></svg><rect width="395.52" height="105.35830098788864" fill="black" stroke="none" visibility="hidden"></rect></g></mask></svg><rect width="395.52" height="105.35830098788864" fill="black" stroke="none" visibility="hidden"></rect></g></mask></svg><rect width="395.52" height="105.35830098788864" fill="black" stroke="none" visibility="hidden"></rect></g></mask><linearGradient x1="0.054" x2="0.941" y1="0.5" y2="0.5" id="6e982310-7401-4d63-bf59-795956d0aa6f"><stop stop-color="#864d25" offset="0"></stop><stop stop-color="#f1c4b3" offset="0.498"></stop><stop stop-color="#864d25" offset="1"></stop></linearGradient><rect width="395.52" height="105.35830098788864" fill="url(#6e982310-7401-4d63-bf59-795956d0aa6f)" mask="url(#f3c1c645-a779-4154-b5da-a887ceeb25fb)" data-fill-palette-color="accent"></rect></svg><rect width="395.52" height="105.35830098788864" fill="none" stroke="none" visibility="hidden"></rect></g></svg></g></svg>