<svg xmlns="http://www.w3.org/2000/svg" version="1.1" xmlns:xlink="http://www.w3.org/1999/xlink" xmlns:svgjs="http://svgjs.dev/svgjs" width="1000" height="1000" viewBox="0 0 1000 1000"><rect width="1000" height="1000" fill="#ffffff"></rect><g transform="matrix(0.7,0,0,0.7,149.90592115636537,242.958684245298)"><svg viewBox="0 0 336 247" data-background-color="#ffffff" preserveAspectRatio="xMidYMid meet" height="735" width="1000" xmlns="http://www.w3.org/2000/svg" xmlns:xlink="http://www.w3.org/1999/xlink"><g id="tight-bounds" transform="matrix(1,0,0,1,0.04532213130676155,-0.09997365579206985)"><svg viewBox="0 0 335.9094515942029 247.2" height="247.2" width="335.9094515942029"><g><svg viewBox="0 0 335.9094515942029 247.2" height="247.2" width="335.9094515942029"><g><svg viewBox="0 0 335.9094515942029 247.2" height="247.2" width="335.9094515942029"><g id="textblocktransform"><svg viewBox="0 0 335.9094515942029 247.2" height="247.2" width="335.9094515942029" id="textblock"><g><svg viewBox="0 0 335.9094515942029 247.2" height="247.2" width="335.9094515942029"><path d="M335.123 53.02C333.544 27.36 329.043 20.227 329.043 20.227 315.225-6.202 297.981-0.506 282.489 3.292 255.137 3.446 227.897 9.091 200.608 12.119 143.331 12.581 85.565 4.986 28.572 23.717 23.219 29.464-5.554 24.846 0.952 56.304 2.658 69.39 8.88 83.913 8.69 95.922 9.543 98.026 10.727 93.202 11.233 96.23 13.001 104.39 15.891 100.541 18.26 105.365 14.96 118.246 17.328 128.971 19.587 140.21 15.607 143.135 10.506 141.749 8.216 151.449 7.98 158.479 6.7 157.145 5.295 156.837 4.269 156.632 2.2 157.402 2.547 159.608 3.732 167.152-1.353 171.514 1.837 178.904-0.358 186.91 3.353 193.838 2.847 202.511 2.784 204.255 3.132 205.744 3.684 206.154 6.132 208.361 2.563 212.672 2.942 217.342 28.051 249.262 55.292 227.195 81.017 241.872 87.697 231.608 82.675 245.516 85.344 243.36 87.428 240.846 88.944 251.263 91.297 245.362 91.66 243.668 91.108 239.665 92.403 240.435 93.082 240.846 93.682 240.743 93.777 238.382 93.919 234.841 92.671 237.048 92.34 235.201 95.924 225.861 95.04 248.081 98.404 247.158 98.246 244.438 97.267 240.538 99.272 241.051 101.262 237.151 101.325 233.918 103.094 242.693 103.157 244.592 103.473 245.926 103.978 246.85 109.505 237.305 115.001 250.237 120.796 245.926 124.35 241.205 127.761 248.492 131.361 246.696 132.624 245.259 133.904 242.693 135.12 247.004 150.011 247.928 165.882 244.079 180 247.158 217.727 241.41 258.043 249.518 297.823 241.923 307.203 238.998 316.947 234.841 326.09 231.506 326.09 231.506 333.496 222.371 333.496 181.316S335.076 145.393 335.313 112.703C335.549 80.013 336.655 78.679 335.076 53.02Z" opacity="1" fill="#6a6bef" data-fill-palette-color="tertiary"></path><g transform="matrix(1,0,0,1,55.76832,26.230666666666668)"><svg width="224.3728115942029" viewBox="0.699999988079071 -33.400001525878906 39.75 34.5" height="194.73866666666666" data-palette-color="#ffffff"><path d="M37.25-33.4Q39.1-33.05 39.68-32.83 40.25-32.6 40.45-32.15L40.45-32.15Q39.4-28.1 37.7-20.68 36-13.25 35.4-10.7L35.4-10.7Q34.3-5.6 33.35-1.65L33.35-1.65Q32.65 1.1 31.15 1.1L31.15 1.1Q26.55 1.1 26.55-1.05L26.55-1.05Q26.55-0.2 29.15-12.35L29.15-12.35 30.05-16.65 20.1-1.25Q19.3-0.25 17.75-0.25L17.75-0.25Q16.45-0.25 15.33-0.9 14.2-1.55 14.35-2.2L14.35-2.2 11.6-18.35 7.5-1.8Q7.15-0.35 6.43 0.15 5.7 0.65 3.7 0.65L3.7 0.65Q2.15 0.65 1.43 0.13 0.7-0.4 0.7-1.65L0.7-1.65Q0.7-2.2 0.85-2.7L0.85-2.7 7.7-29.75Q8.25-31.95 8.88-32.68 9.5-33.4 11.15-33.4L11.15-33.4Q12.5-33.4 13.55-33.1 14.6-32.8 14.65-32.2L14.65-32.2 14.65-32.1 18.65-7.25Q20.8-10.7 25.73-18.65 30.65-26.6 33.45-31.05L33.45-31.05Q33.95-32.3 34.58-32.68 35.2-33.05 36.02-33.2 36.85-33.35 37.25-33.4L37.25-33.4ZM26.55-1.05L26.55-1.05Z" opacity="1" transform="matrix(1,0,0,1,0,0)" fill="#ffffff" class="undefined-text-0" data-fill-palette-color="quaternary" id="text-0"></path></svg></g></svg></g></svg></g></svg></g><g></g></svg></g><defs></defs></svg><rect width="335.9094515942029" height="247.2" fill="none" stroke="none" visibility="hidden"></rect></g></svg></g></svg>